<svg width="75" height="54" viewBox="0 0 75 54" fill="none" xmlns="http://www.w3.org/2000/svg">
<path d="M36.9684 23.3823C37.5555 23.3504 38.0222 22.865 38.0222 22.2692C38.0222 19.057 35.4438 16.5407 32.1521 16.5407H31.0644L29.7348 10.2298C31.0178 9.67244 31.9176 8.39229 31.9176 6.90518C31.9176 4.90763 30.2945 3.28247 28.2993 3.28247H23.1559C22.5401 3.28247 22.0409 3.78227 22.0409 4.39875V5.7889H19.3002C18.6845 5.7889 18.1853 6.28869 18.1853 6.90518C18.1853 7.52167 18.6845 8.02146 19.3002 8.02146H22.0409V9.41161C22.0409 10.0281 22.5401 10.5279 23.1559 10.5279H23.6509C22.7278 11.6195 22.1694 13.0297 22.1694 14.5688V20.9211C22.1694 20.9537 22.143 20.9801 22.1105 20.9801H17.6067C17.5807 20.9801 17.5575 20.9628 17.5501 20.9378L16.336 16.8298C17.3145 16.568 18.0376 15.6731 18.0376 14.612C18.0376 12.0924 15.9902 10.0426 13.4738 10.0426H3.42818C1.53794 10.0425 0 11.5823 0 13.4749C0 15.2052 1.28544 16.6397 2.95026 16.8734C1.18415 18.4551 0.0704746 20.7528 0.0704746 23.3064V26.7817C0.0704746 27.3982 0.569676 27.898 1.18542 27.898H2.15011C2.6694 30.4907 4.96061 32.4502 7.70079 32.4502C10.441 32.4502 12.7322 30.4907 13.2515 27.898H26.8902C27.4095 30.4907 29.7007 32.4502 32.4409 32.4502C35.5626 32.4502 38.1024 29.9073 38.1024 26.7817C38.1024 25.5074 37.68 24.3301 36.9684 23.3823ZM35.6098 21.1529H33.0999C32.8835 21.1277 32.6639 21.1132 32.441 21.1132C32.0413 21.1132 31.6515 21.1555 31.2751 21.2347V18.7733H32.1522C33.7851 18.7733 35.1351 19.7561 35.6098 21.1529ZM24.2707 5.51496H28.2993C29.0649 5.51496 29.6878 6.13859 29.6878 6.90511C29.6878 7.67162 29.0649 8.29525 28.2993 8.29525H24.2707V5.51496ZM17.6068 23.2126H22.1106C23.3727 23.2126 24.3993 22.1846 24.3993 20.921V14.5687C24.3993 12.65 25.7453 11.04 27.5415 10.6357L29.0453 17.7732V22.249C27.9542 23.0705 27.1684 24.2771 26.8903 25.6654H15.8056C15.2849 21.6603 11.9776 18.6638 7.84955 18.6638C6.0088 18.6638 4.35626 19.2651 3.05244 20.2988C4.12943 18.2826 6.25275 16.9074 8.6916 16.9074H14.0338L15.4122 21.5713C15.6977 22.5377 16.6002 23.2126 17.6068 23.2126ZM2.39093 25.6654C2.58576 24.4778 3.09307 23.4065 3.86889 22.5764C4.8815 21.493 6.29516 20.8963 7.8494 20.8963C10.7251 20.8963 13.0482 22.9172 13.547 25.6653H2.39093V25.6654ZM3.42818 14.6749C2.76741 14.6749 2.22981 14.1366 2.22981 13.4749C2.22981 12.8133 2.76741 12.275 3.42818 12.275H13.4738C14.7608 12.275 15.8078 13.3233 15.8078 14.6118C15.7982 14.6578 15.7247 14.6881 15.5878 14.6747C14.6603 14.6747 14.9254 14.6747 14.7323 14.6747C13.4001 14.6749 3.43465 14.6749 3.42818 14.6749ZM7.70079 30.2176C6.19879 30.2176 4.91998 29.246 4.45605 27.8979H10.9455C10.4816 29.246 9.20278 30.2176 7.70079 30.2176ZM32.441 30.2176C30.5487 30.2176 29.0093 28.6762 29.0093 26.7816C29.0093 24.8871 30.5488 23.3458 32.441 23.3458C34.3332 23.3458 35.8726 24.8871 35.8726 26.7816C35.8726 28.6762 34.3331 30.2176 32.441 30.2176Z" fill="#37E710"/>
<path d="M32.4409 27.9055C33.0608 27.9055 33.5632 27.4024 33.5632 26.7819C33.5632 26.1613 33.0608 25.6582 32.4409 25.6582C31.8211 25.6582 31.3186 26.1613 31.3186 26.7819C31.3186 27.4024 31.8211 27.9055 32.4409 27.9055Z" fill="#37E710"/>
<path d="M1.1617 6.80678H11.1612C11.7769 6.80678 12.2762 6.30698 12.2762 5.6905C12.2762 5.07401 11.7769 4.57422 11.1612 4.57422H1.1617C0.545955 4.57422 0.0467529 5.07401 0.0467529 5.6905C0.0467529 6.30698 0.545955 6.80678 1.1617 6.80678Z" fill="#37E710"/>
<path d="M4.86568 2.23256H14.9514C15.5671 2.23256 16.0663 1.73277 16.0663 1.11628C16.0663 0.499797 15.5671 0 14.9514 0H4.86568C4.24993 0 3.75073 0.499797 3.75073 1.11628C3.75073 1.73277 4.24993 2.23256 4.86568 2.23256Z" fill="#37E710"/>
<path d="M72.3851 37.6834L68.5392 35.9273L65.1446 30.5117C64.1636 28.9419 62.4368 27.9903 60.5826 28.0001H46.1214C44.4437 28.0001 42.8544 28.7751 41.834 30.1094L37.4486 35.8488L30.1395 37.8502C28.2852 38.3603 27 40.0576 27 41.9806V44.7767C27 47.1411 28.8837 49.0934 31.2481 49.0934H31.876C32.6314 52.0073 35.6041 53.7536 38.518 52.9982C40.4311 52.4978 41.9321 51.0066 42.4227 49.0934H58.9049C59.6604 52.0073 62.6331 53.7536 65.5469 52.9982C67.46 52.4978 68.9611 51.0066 69.4516 49.0934H70.6289C72.9933 49.0934 74.877 47.1411 74.877 44.7767V41.5881C74.8868 39.9105 73.9058 38.38 72.3851 37.6834ZM37.1444 51.193C35.2215 51.193 33.6616 49.633 33.6616 47.7101C33.6616 45.7872 35.2215 44.2272 37.1444 44.2272C39.0674 44.2272 40.6273 45.7872 40.6273 47.7101C40.6371 49.6232 39.0772 51.1831 37.1444 51.193ZM64.1734 51.193C62.2504 51.193 60.6905 49.633 60.6905 47.7101C60.6905 45.7872 62.2504 44.2272 64.1734 44.2272C66.0963 44.2272 67.6562 45.7872 67.6562 47.7101C67.666 49.6232 66.1061 51.1831 64.1734 51.193ZM70.6289 47.1313H69.589C69.2652 44.1389 66.5672 41.9806 63.5749 42.3141C61.0339 42.5888 59.0325 44.6001 58.7578 47.1313H42.56C42.2363 44.1389 39.5383 41.9806 36.546 42.3141C34.005 42.5888 32.0035 44.6001 31.7288 47.1313H31.2383C29.9531 47.1313 28.9524 46.0619 28.9524 44.7767V41.9806C28.9426 40.9308 29.6391 40.0184 30.6496 39.7339L38.2923 37.6442C38.4983 37.5853 38.6847 37.4676 38.8123 37.291L43.3841 31.2965C44.0415 30.4528 45.052 29.9622 46.1214 29.9622H60.5826C61.7599 29.9524 62.8685 30.5509 63.4866 31.5516L67.0381 37.2223C67.1363 37.3891 67.2932 37.5166 67.46 37.5951L71.561 39.469C72.3851 39.8516 72.9149 40.6757 72.905 41.5881V44.7767H72.9149C72.9149 46.0619 71.9141 47.1313 70.6289 47.1313Z" fill="#37E710"/>
</svg>
