<svg width="322" height="205" viewBox="0 0 322 205" fill="none" xmlns="http://www.w3.org/2000/svg">
<g filter="url(#filter0_d)">
<path d="M286.087 12H35.913C29.3337 12 24 16.8145 24 22.7534V158.247C24 164.186 29.3337 169 35.913 169H286.087C292.666 169 298 164.186 298 158.247V22.7534C298 16.8145 292.666 12 286.087 12Z" fill="#DCB6FF"/>
<mask id="mask0" mask-type="alpha" maskUnits="userSpaceOnUse" x="24" y="12" width="274" height="157">
<path d="M286.087 12H35.913C29.3337 12 24 16.8145 24 22.7534V158.247C24 164.186 29.3337 169 35.913 169H286.087C292.666 169 298 164.186 298 158.247V22.7534C298 16.8145 292.666 12 286.087 12Z" fill="#DCB6FF"/>
</mask>
<g mask="url(#mask0)">
<path d="M161.173 111.854C240.877 111.854 305.491 53.5301 305.491 -18.4161C305.491 -90.3623 240.877 -148.686 161.173 -148.686C81.4681 -148.686 16.8547 -90.3623 16.8547 -18.4161C16.8547 53.5301 81.4681 111.854 161.173 111.854Z" fill="#D64665"/>
<path d="M308.212 207.712C387.916 207.712 452.53 149.388 452.53 77.4423C452.53 5.49614 387.916 -52.8278 308.212 -52.8278C228.507 -52.8278 163.894 5.49614 163.894 77.4423C163.894 149.388 228.507 207.712 308.212 207.712Z" fill="#2C2795"/>
</g>
<path d="M241.071 39.7633C240.855 39.5885 241.048 39.3489 241.309 39.4868C244.497 41.1192 248.1 41.9757 251.765 41.9721C254.505 41.9613 257.216 41.4644 259.744 40.5099C260.136 40.3628 260.461 40.7434 260.079 40.9972C257.764 42.5263 254.412 43.3402 251.523 43.3402C247.668 43.3594 243.943 42.0846 241.071 39.7633ZM260.429 42.373C260.709 41.7487 261.334 40.3486 261.038 40.0094C260.743 39.6702 259.084 39.8497 258.339 39.9283C258.112 39.9523 258.079 39.7747 258.281 39.6478C259.605 38.8149 261.775 39.0558 262.025 39.3354C262.275 39.615 261.96 41.5677 260.715 42.4965C260.663 42.5396 260.597 42.5655 260.527 42.5699C260.43 42.5699 260.373 42.495 260.429 42.373H260.429ZM263.618 35.7756C263.618 34.0117 264.607 32.6394 266.39 32.6394C268.22 32.6394 269.213 34.0462 269.208 35.8347C269.208 37.5638 268.115 38.9353 266.39 38.9353C264.594 38.9366 263.618 37.529 263.618 35.7756H263.618ZM265.434 35.5966C265.434 36.2891 265.424 37.7681 266.39 37.7681C267.347 37.7681 267.393 36.5757 267.39 35.8485C267.41 35.3418 267.348 34.8351 267.205 34.3448C267.166 34.1811 267.063 34.0355 266.915 33.9347C266.767 33.834 266.584 33.7848 266.399 33.7964C265.492 33.7964 265.434 34.9056 265.434 35.5975V35.5966ZM235.372 37.1764C235.359 36.79 235.478 36.4094 235.713 36.0865C235.948 35.7635 236.288 35.5142 236.687 35.3726C237.357 35.1087 238.29 35.0622 239.004 34.9882V34.8462C239.042 34.5726 238.99 34.2948 238.855 34.0474C238.774 33.9529 238.669 33.8775 238.549 33.8275C238.429 33.7774 238.297 33.7543 238.165 33.7599C237.939 33.7433 237.714 33.8013 237.531 33.9232C237.349 34.0452 237.222 34.2228 237.174 34.4229C237.167 34.4727 237.142 34.5192 237.104 34.5556C237.066 34.5919 237.015 34.6162 236.961 34.6247L235.762 34.5095C235.733 34.5058 235.705 34.4968 235.68 34.483C235.654 34.4693 235.633 34.451 235.616 34.4293C235.598 34.4077 235.586 34.3831 235.58 34.3571C235.574 34.3311 235.573 34.3043 235.579 34.2782C235.855 32.9798 237.163 32.5884 238.336 32.5884C239.008 32.5649 239.667 32.7599 240.194 33.138C240.793 33.6403 240.735 34.3101 240.735 35.038V36.7585C240.741 37.1406 240.907 37.5065 241.199 37.7826C241.221 37.8019 241.237 37.8248 241.249 37.8501C241.26 37.8754 241.266 37.9024 241.266 37.9297C241.265 37.957 241.259 37.9839 241.247 38.009C241.235 38.034 241.218 38.0567 241.196 38.0756C240.944 38.2637 240.497 38.6145 240.252 38.8087L240.249 38.8072C240.209 38.8375 240.159 38.8561 240.107 38.8606C240.055 38.8652 240.003 38.8555 239.957 38.8327C239.673 38.6279 239.434 38.3779 239.25 38.0953C239.005 38.3642 238.694 38.5771 238.341 38.7168C237.988 38.8564 237.603 38.9187 237.218 38.8987C236.18 38.8975 235.373 38.3236 235.373 37.1761L235.372 37.1764ZM237.174 36.9843C237.174 37.4618 237.448 37.7832 237.921 37.7832C238.099 37.7761 238.273 37.7258 238.422 37.6375C238.572 37.5492 238.693 37.4263 238.772 37.2814C238.97 36.9186 239.05 36.5125 239.002 36.1102V35.8709C238.114 35.8721 237.174 36.043 237.174 36.984V36.9843ZM251.53 37.1755C251.516 36.789 251.635 36.408 251.87 36.0848C252.105 35.7616 252.445 35.512 252.844 35.3701C253.513 35.1062 254.447 35.0595 255.161 34.9861V34.8459C255.199 34.5721 255.147 34.294 255.01 34.0471C254.929 33.9525 254.824 33.8769 254.704 33.8269C254.584 33.7768 254.452 33.7537 254.32 33.7596C254.094 33.743 253.869 33.801 253.687 33.9229C253.504 34.0449 253.377 34.2225 253.329 34.4226C253.322 34.4727 253.298 34.5195 253.259 34.556C253.22 34.5924 253.169 34.6164 253.114 34.6244L251.92 34.5092C251.891 34.5058 251.862 34.497 251.837 34.4833C251.812 34.4696 251.79 34.4514 251.772 34.4296C251.755 34.4079 251.743 34.3832 251.737 34.3571C251.731 34.331 251.731 34.304 251.737 34.2778C252.009 32.9794 253.321 32.588 254.494 32.588C255.165 32.5647 255.824 32.7597 256.35 33.1377C256.949 33.64 256.894 34.3098 256.894 35.0377V36.7582C256.9 37.14 257.065 37.5058 257.357 37.7822C257.378 37.8017 257.394 37.8248 257.405 37.8501C257.416 37.8754 257.422 37.9024 257.421 37.9296C257.421 37.9568 257.414 37.9835 257.402 38.0084C257.39 38.0334 257.373 38.0559 257.351 38.0747C257.1 38.2625 256.654 38.6133 256.408 38.8078L256.406 38.8062C256.366 38.8364 256.316 38.855 256.264 38.8595C256.212 38.864 256.159 38.8544 256.113 38.8317C255.83 38.627 255.59 38.3771 255.407 38.0944C255.162 38.3632 254.85 38.5761 254.497 38.7158C254.144 38.8554 253.759 38.9179 253.374 38.8981C252.336 38.8969 251.53 38.3227 251.53 37.1752V37.1755ZM253.328 36.9843C253.328 37.4618 253.605 37.7832 254.08 37.7832C254.258 37.7761 254.431 37.7258 254.581 37.6375C254.731 37.5492 254.852 37.4263 254.931 37.2814C255.129 36.9187 255.209 36.5125 255.162 36.1102V35.8709C254.269 35.8721 253.327 36.043 253.327 36.984L253.328 36.9843ZM273.72 38.8201C273.666 38.8171 273.615 38.7976 273.576 38.765C273.536 38.7323 273.511 38.6885 273.503 38.6407V35.5624C273.503 34.9424 273.584 34.0349 272.735 34.0349C272.58 34.0404 272.43 34.0861 272.303 34.1665C272.177 34.2469 272.078 34.3586 272.02 34.4883C271.866 34.829 271.799 35.1964 271.823 35.5636V38.6139C271.82 38.67 271.794 38.7231 271.749 38.7617C271.704 38.8003 271.644 38.8215 271.582 38.8207H270.356C270.297 38.8181 270.241 38.7953 270.2 38.7569C270.159 38.7185 270.135 38.6674 270.134 38.6139L270.132 32.9435C270.139 32.8915 270.168 32.8438 270.212 32.8097C270.256 32.7755 270.312 32.7575 270.37 32.7592H271.513C271.564 32.7609 271.613 32.7772 271.652 32.8057C271.692 32.8343 271.721 32.8737 271.734 32.918V33.7847H271.753C272.097 33.0095 272.583 32.64 273.433 32.64C273.717 32.6283 273.999 32.6838 274.252 32.8012C274.505 32.9185 274.719 33.0936 274.874 33.3088C275.196 33.7639 275.196 34.5255 275.196 35.0745V38.6391C275.186 38.6898 275.157 38.7357 275.113 38.7686C275.069 38.8014 275.013 38.8191 274.956 38.8185L273.72 38.8201ZM242.383 38.8185C242.327 38.8169 242.274 38.797 242.233 38.7627C242.193 38.7283 242.167 38.6818 242.162 38.6318V32.9632C242.162 32.9357 242.169 32.9085 242.182 32.8833C242.194 32.8581 242.212 32.8354 242.234 32.8164C242.256 32.7974 242.282 32.7826 242.311 32.7728C242.339 32.763 242.37 32.7584 242.4 32.7592H243.549C243.606 32.7604 243.66 32.7804 243.701 32.8153C243.742 32.8502 243.768 32.8976 243.773 32.9484V33.6892H243.794C243.897 33.3762 244.112 33.1029 244.406 32.9127C244.7 32.7225 245.056 32.6261 245.418 32.6387C246.188 32.6387 246.671 32.974 247.017 33.6892C247.134 33.4193 247.327 33.1819 247.578 33.0009C247.828 32.8198 248.127 32.7016 248.444 32.658C248.761 32.6144 249.086 32.647 249.385 32.7525C249.684 32.858 249.946 33.0327 250.147 33.259C250.536 33.7359 250.457 34.4284 250.457 35.0365V38.613C250.456 38.6406 250.45 38.6677 250.437 38.6929C250.425 38.7181 250.407 38.7409 250.385 38.7599C250.363 38.7789 250.337 38.7938 250.308 38.8037C250.28 38.8136 250.249 38.8183 250.219 38.8176H248.987C248.929 38.815 248.873 38.7924 248.832 38.7545C248.791 38.7166 248.767 38.6661 248.765 38.613V35.6079C248.784 35.2533 248.772 34.8979 248.731 34.5449C248.707 34.3937 248.616 34.2575 248.481 34.1661C248.345 34.0746 248.175 34.0354 248.007 34.0569C247.847 34.061 247.692 34.1071 247.561 34.1896C247.431 34.2721 247.329 34.3874 247.27 34.5212C247.168 34.8757 247.13 35.2425 247.156 35.6079V38.613C247.155 38.6406 247.148 38.6678 247.136 38.6931C247.124 38.7183 247.106 38.7411 247.084 38.7601C247.062 38.7791 247.036 38.794 247.007 38.8038C246.979 38.8137 246.948 38.8184 246.917 38.8176H245.686C245.627 38.8154 245.571 38.7931 245.53 38.7551C245.488 38.7171 245.464 38.6663 245.463 38.613V35.6079C245.463 34.9753 245.577 34.0453 244.702 34.0453C243.817 34.0453 243.851 34.9522 243.851 35.6079V38.6139C243.85 38.6693 243.824 38.722 243.78 38.7603C243.735 38.7987 243.676 38.8196 243.614 38.8185H242.383ZM258.162 38.4701V37.6476C258.149 37.4526 258.2 37.2584 258.311 37.0903L260.743 33.9651H258.627C258.596 33.9666 258.566 33.9623 258.537 33.9527C258.509 33.9431 258.482 33.9283 258.46 33.9092C258.438 33.8901 258.421 33.8671 258.409 33.8417C258.398 33.8163 258.392 33.7889 258.392 33.7614V32.9503C258.391 32.9231 258.397 32.896 258.408 32.8706C258.419 32.8453 258.436 32.8223 258.457 32.803C258.478 32.7838 258.504 32.7687 258.532 32.7586C258.56 32.7486 258.59 32.7438 258.62 32.7447H262.671C262.701 32.7434 262.732 32.7479 262.76 32.7577C262.789 32.7675 262.815 32.7825 262.837 32.8018C262.859 32.821 262.876 32.8441 262.888 32.8697C262.9 32.8952 262.905 32.9227 262.905 32.9503V33.6447C262.905 33.7611 262.795 33.9122 262.601 34.1544L260.499 36.8399C261.299 36.7993 262.097 36.9526 262.809 37.2839C262.873 37.3145 262.927 37.3596 262.965 37.4148C263.003 37.47 263.024 37.5332 263.027 37.5982V38.4644C263.027 38.4968 263.019 38.5288 263.003 38.5577C262.987 38.5866 262.963 38.6114 262.933 38.6299C262.904 38.6483 262.869 38.6598 262.834 38.6634C262.798 38.667 262.762 38.6626 262.729 38.6505C262.066 38.3454 261.333 38.1867 260.589 38.1876C259.846 38.1884 259.113 38.3488 258.452 38.6554C258.428 38.6677 258.401 38.6743 258.373 38.6745C258.316 38.6693 258.264 38.6456 258.225 38.608C258.186 38.5703 258.164 38.5212 258.162 38.4698V38.4701Z" fill="white"/>
<path d="M50.5706 94.2777H48.0384L47.5569 95.7219H46.0212L48.6305 88.7126H49.9688L52.5925 95.7219H51.0568L50.5706 94.2777ZM48.4283 93.1079H50.1806L49.2997 90.4842L48.4283 93.1079ZM54.2293 90.5131L54.2726 91.0956C54.6417 90.643 55.1408 90.4168 55.7698 90.4168C56.4406 90.4168 56.9011 90.6816 57.1514 91.2111C57.5173 90.6816 58.0388 90.4168 58.716 90.4168C59.2809 90.4168 59.7013 90.5821 59.9773 90.9126C60.2533 91.24 60.3913 91.7342 60.3913 92.3954V95.7219H58.9952V92.4002C58.9952 92.1049 58.9375 91.8899 58.8219 91.7551C58.7064 91.6171 58.5026 91.5481 58.2106 91.5481C57.7933 91.5481 57.5045 91.7471 57.344 92.145L57.3488 95.7219H55.9576V92.405C55.9576 92.1033 55.8982 91.8851 55.7794 91.7503C55.6607 91.6155 55.4585 91.5481 55.1729 91.5481C54.7781 91.5481 54.4925 91.7118 54.3159 92.0391V95.7219H52.9247V90.5131H54.2293ZM64.4833 95.7219C64.4191 95.5968 64.3726 95.4411 64.3437 95.255C64.0067 95.6305 63.5686 95.8182 63.0295 95.8182C62.5192 95.8182 62.0955 95.6706 61.7585 95.3753C61.4248 95.08 61.2579 94.7078 61.2579 94.2584C61.2579 93.7064 61.4617 93.2828 61.8693 92.9875C62.2801 92.6922 62.8722 92.543 63.6457 92.5398H64.2859V92.2413C64.2859 92.0006 64.2234 91.8081 64.0982 91.6636C63.9762 91.5192 63.7821 91.447 63.5157 91.447C63.2814 91.447 63.0969 91.5032 62.9621 91.6155C62.8305 91.7278 62.7647 91.8819 62.7647 92.0776H61.3734C61.3734 91.776 61.4665 91.4967 61.6526 91.24C61.8388 90.9832 62.102 90.7827 62.4421 90.6382C62.7823 90.4906 63.1643 90.4168 63.5879 90.4168C64.2298 90.4168 64.7385 90.5789 65.114 90.903C65.4927 91.2239 65.682 91.6765 65.682 92.2606V94.5184C65.6852 95.0126 65.7542 95.3865 65.889 95.6401V95.7219H64.4833ZM63.3328 94.7543C63.5382 94.7543 63.7275 94.7094 63.9008 94.6195C64.0741 94.5264 64.2025 94.4029 64.2859 94.2488V93.3534H63.766C63.0696 93.3534 62.6989 93.5941 62.654 94.0755L62.6492 94.1573C62.6492 94.3306 62.7101 94.4735 62.8321 94.5858C62.954 94.6981 63.1209 94.7543 63.3328 94.7543ZM68.349 94.6002H70.8957V95.7219H66.5726V94.8746L69.023 91.6396H66.6449V90.5131H70.8187V91.3363L68.349 94.6002ZM71.4734 93.0694C71.4734 92.5526 71.5729 92.0921 71.7719 91.6877C71.9709 91.2833 72.2565 90.9704 72.6288 90.749C73.0043 90.5275 73.4392 90.4168 73.9334 90.4168C74.6363 90.4168 75.2091 90.6318 75.652 91.0619C76.0981 91.4919 76.3469 92.076 76.3982 92.8142L76.4079 93.1705C76.4079 93.9696 76.1848 94.6115 75.7387 95.0961C75.2926 95.5775 74.694 95.8182 73.943 95.8182C73.192 95.8182 72.5919 95.5775 72.1426 95.0961C71.6965 94.6147 71.4734 93.96 71.4734 93.1319V93.0694ZM72.8647 93.1705C72.8647 93.6647 72.9577 94.0434 73.1439 94.3066C73.33 94.5665 73.5964 94.6965 73.943 94.6965C74.28 94.6965 74.5432 94.5681 74.7325 94.3114C74.9219 94.0514 75.0166 93.6374 75.0166 93.0694C75.0166 92.5847 74.9219 92.2092 74.7325 91.9429C74.5432 91.6765 74.2768 91.5433 73.9334 91.5433C73.5932 91.5433 73.33 91.6765 73.1439 91.9429C72.9577 92.206 72.8647 92.6152 72.8647 93.1705ZM78.5453 90.5131L78.5886 91.1148C78.9609 90.6495 79.46 90.4168 80.0858 90.4168C80.6378 90.4168 81.0486 90.5789 81.3182 90.903C81.5878 91.2272 81.7258 91.7118 81.7322 92.3569V95.7219H80.341V92.3906C80.341 92.0953 80.2768 91.8819 80.1484 91.7503C80.02 91.6155 79.8066 91.5481 79.5081 91.5481C79.1166 91.5481 78.8229 91.715 78.6272 92.0488V95.7219H77.2359V90.5131H78.5453ZM86.7822 93.2523V95.7219H85.338V88.7126H88.0724C88.5988 88.7126 89.0609 88.8089 89.4589 89.0014C89.8601 89.194 90.1682 89.4684 90.3832 89.8247C90.5982 90.1777 90.7057 90.5805 90.7057 91.033C90.7057 91.7198 90.4698 92.2622 89.9981 92.6602C89.5295 93.0549 88.8796 93.2523 88.0483 93.2523H86.7822ZM86.7822 92.0825H88.0724C88.4543 92.0825 88.7448 91.9926 88.9438 91.8129C89.146 91.6331 89.2471 91.3764 89.2471 91.0426C89.2471 90.6992 89.146 90.4216 88.9438 90.2098C88.7416 89.998 88.4624 89.8888 88.1061 89.8824H86.7822V92.0825ZM93.0791 95.7219H91.683V88.3275H93.0791V95.7219ZM97.2481 95.7219C97.1839 95.5968 97.1374 95.4411 97.1085 95.255C96.7715 95.6305 96.3334 95.8182 95.7942 95.8182C95.2839 95.8182 94.8603 95.6706 94.5233 95.3753C94.1895 95.08 94.0226 94.7078 94.0226 94.2584C94.0226 93.7064 94.2264 93.2828 94.634 92.9875C95.0448 92.6922 95.637 92.543 96.4104 92.5398H97.0507V92.2413C97.0507 92.0006 96.9881 91.8081 96.863 91.6636C96.741 91.5192 96.5468 91.447 96.2805 91.447C96.0462 91.447 95.8616 91.5032 95.7268 91.6155C95.5953 91.7278 95.5295 91.8819 95.5295 92.0776H94.1382C94.1382 91.776 94.2313 91.4967 94.4174 91.24C94.6035 90.9832 94.8667 90.7827 95.2069 90.6382C95.5471 90.4906 95.929 90.4168 96.3527 90.4168C96.9946 90.4168 97.5032 90.5789 97.8787 90.903C98.2575 91.2239 98.4468 91.6765 98.4468 92.2606V94.5184C98.45 95.0126 98.519 95.3865 98.6538 95.6401V95.7219H97.2481ZM96.0975 94.7543C96.3029 94.7543 96.4923 94.7094 96.6656 94.6195C96.8389 94.5264 96.9673 94.4029 97.0507 94.2488V93.3534H96.5308C95.8344 93.3534 95.4637 93.5941 95.4187 94.0755L95.4139 94.1573C95.4139 94.3306 95.4749 94.4735 95.5969 94.5858C95.7188 94.6981 95.8857 94.7543 96.0975 94.7543ZM101.181 89.2325V90.5131H102.072V91.5337H101.181V94.1333C101.181 94.3258 101.218 94.4638 101.292 94.5473C101.366 94.6307 101.507 94.6724 101.716 94.6724C101.87 94.6724 102.006 94.6612 102.125 94.6388V95.693C101.852 95.7765 101.571 95.8182 101.282 95.8182C100.307 95.8182 99.8092 95.3256 99.7899 94.3403V91.5337H99.0293V90.5131H99.7899V89.2325H101.181ZM104.315 95.7219H102.919V90.5131H104.315V95.7219ZM102.837 89.1651C102.837 88.9565 102.906 88.7848 103.044 88.65C103.185 88.5152 103.376 88.4478 103.617 88.4478C103.855 88.4478 104.044 88.5152 104.185 88.65C104.326 88.7848 104.397 88.9565 104.397 89.1651C104.397 89.3769 104.325 89.5502 104.18 89.685C104.039 89.8198 103.851 89.8872 103.617 89.8872C103.383 89.8872 103.194 89.8198 103.049 89.685C102.908 89.5502 102.837 89.3769 102.837 89.1651ZM106.746 90.5131L106.79 91.1148C107.162 90.6495 107.661 90.4168 108.287 90.4168C108.839 90.4168 109.25 90.5789 109.519 90.903C109.789 91.2272 109.927 91.7118 109.933 92.3569V95.7219H108.542V92.3906C108.542 92.0953 108.478 91.8819 108.349 91.7503C108.221 91.6155 108.008 91.5481 107.709 91.5481C107.318 91.5481 107.024 91.715 106.828 92.0488V95.7219H105.437V90.5131H106.746ZM112.461 95.7219H111.065V90.5131H112.461V95.7219ZM110.983 89.1651C110.983 88.9565 111.052 88.7848 111.19 88.65C111.331 88.5152 111.522 88.4478 111.763 88.4478C112 88.4478 112.189 88.5152 112.331 88.65C112.472 88.7848 112.542 88.9565 112.542 89.1651C112.542 89.3769 112.47 89.5502 112.326 89.685C112.185 89.8198 111.997 89.8872 111.763 89.8872C111.528 89.8872 111.339 89.8198 111.195 89.685C111.053 89.5502 110.983 89.3769 110.983 89.1651ZM116.731 95.1924C116.387 95.6096 115.912 95.8182 115.306 95.8182C114.747 95.8182 114.321 95.6577 114.025 95.3368C113.733 95.0159 113.584 94.5457 113.578 93.9263V90.5131H114.969V93.8781C114.969 94.4205 115.216 94.6917 115.71 94.6917C116.182 94.6917 116.506 94.528 116.683 94.2007V90.5131H118.079V95.7219H116.769L116.731 95.1924ZM120.433 90.5131L120.476 91.0956C120.845 90.643 121.344 90.4168 121.973 90.4168C122.644 90.4168 123.105 90.6816 123.355 91.2111C123.721 90.6816 124.242 90.4168 124.92 90.4168C125.484 90.4168 125.905 90.5821 126.181 90.9126C126.457 91.24 126.595 91.7342 126.595 92.3954V95.7219H125.199V92.4002C125.199 92.1049 125.141 91.8899 125.025 91.7551C124.91 91.6171 124.706 91.5481 124.414 91.5481C123.997 91.5481 123.708 91.7471 123.548 92.145L123.552 95.7219H122.161V92.405C122.161 92.1033 122.102 91.8851 121.983 91.7503C121.864 91.6155 121.662 91.5481 121.376 91.5481C120.982 91.5481 120.696 91.7118 120.519 92.0391V95.7219H119.128V90.5131H120.433Z" fill="white"/>
<path d="M51.1656 32.7373H53.3338V40.0224C53.3338 40.6921 53.1844 41.2847 52.8857 41.8003C52.5918 42.311 52.175 42.7061 51.6354 42.9856C51.0957 43.265 50.4862 43.4047 49.8069 43.4047C48.6939 43.4047 47.8266 43.1229 47.205 42.5591C46.5835 41.9906 46.2727 41.1884 46.2727 40.1525H48.4554C48.4554 40.668 48.5638 41.0487 48.7806 41.2944C48.9974 41.5401 49.3395 41.663 49.8069 41.663C50.2212 41.663 50.5513 41.5208 50.797 41.2366C51.0427 40.9523 51.1656 40.5476 51.1656 40.0224V32.7373ZM54.7286 39.278C54.7286 38.5023 54.878 37.8108 55.1767 37.2038C55.4754 36.5967 55.9042 36.1269 56.4632 35.7944C57.0269 35.462 57.6797 35.2958 58.4217 35.2958C59.4769 35.2958 60.337 35.6186 61.0019 36.2642C61.6716 36.9098 62.045 37.7868 62.1221 38.8949L62.1365 39.4298C62.1365 40.6295 61.8017 41.5931 61.132 42.3207C60.4622 43.0434 59.5636 43.4047 58.4362 43.4047C57.3087 43.4047 56.4077 43.0434 55.7332 42.3207C55.0635 41.5979 54.7286 40.615 54.7286 39.3719V39.278ZM56.8173 39.4298C56.8173 40.1717 56.957 40.7403 57.2365 41.1354C57.5159 41.5257 57.9158 41.7208 58.4362 41.7208C58.9421 41.7208 59.3372 41.5281 59.6215 41.1426C59.9057 40.7523 60.0479 40.1308 60.0479 39.278C60.0479 38.5504 59.9057 37.9867 59.6215 37.5868C59.3372 37.1869 58.9373 36.9869 58.4217 36.9869C57.911 36.9869 57.5159 37.1869 57.2365 37.5868C56.957 37.9819 56.8173 38.5962 56.8173 39.4298ZM65.4611 36.2931C66.0152 35.6282 66.7114 35.2958 67.5498 35.2958C69.2458 35.2958 70.1058 36.2811 70.1299 38.2517V43.2602H68.0412V38.3095C68.0412 37.8614 67.9448 37.5314 67.7521 37.3194C67.5594 37.1026 67.239 36.9942 66.7909 36.9942C66.179 36.9942 65.7357 37.2303 65.4611 37.7024V43.2602H63.3724V32.1591H65.4611V36.2931ZM73.6279 35.4403L73.6929 36.3437C74.2518 35.6451 75.0011 35.2958 75.9406 35.2958C76.7693 35.2958 77.386 35.5391 77.7908 36.0257C78.1955 36.5124 78.4027 37.2399 78.4123 38.2083V43.2602H76.3236V38.2589C76.3236 37.8157 76.2273 37.4953 76.0345 37.2977C75.8418 37.0953 75.5214 36.9942 75.0733 36.9942C74.4855 36.9942 74.0446 37.2447 73.7507 37.7458V43.2602H71.6621V35.4403H73.6279ZM89.2821 40.4994C89.2821 40.0898 89.1376 39.7767 88.8485 39.5598C88.5594 39.3382 88.039 39.1069 87.2874 38.866C86.5357 38.6203 85.9407 38.3794 85.5022 38.1433C84.3073 37.4977 83.7099 36.628 83.7099 35.5343C83.7099 34.9657 83.8689 34.4598 84.1869 34.0165C84.5097 33.5685 84.9698 33.2191 85.5673 32.9686C86.1696 32.718 86.8441 32.5928 87.5909 32.5928C88.3426 32.5928 89.0123 32.7301 89.6001 33.0047C90.1879 33.2745 90.6432 33.6576 90.966 34.1539C91.2937 34.6501 91.4575 35.2139 91.4575 35.845H89.2893C89.2893 35.3632 89.1376 34.9898 88.834 34.7248C88.5305 34.455 88.1041 34.3201 87.5548 34.3201C87.0248 34.3201 86.6128 34.4333 86.3189 34.6598C86.025 34.8814 85.8781 35.1753 85.8781 35.5415C85.8781 35.8836 86.0491 36.1703 86.3912 36.4015C86.7381 36.6328 87.2464 36.8496 87.9161 37.052C89.1496 37.423 90.0482 37.8831 90.6119 38.4324C91.1756 38.9817 91.4575 39.6658 91.4575 40.4849C91.4575 41.3956 91.113 42.1111 90.424 42.6314C89.735 43.147 88.8075 43.4047 87.6415 43.4047C86.8321 43.4047 86.0949 43.2578 85.43 42.9639C84.7651 42.6651 84.2568 42.258 83.905 41.7425C83.5581 41.2269 83.3847 40.6295 83.3847 39.9501H85.5601C85.5601 41.1113 86.2539 41.6919 87.6415 41.6919C88.1571 41.6919 88.5594 41.5883 88.8485 41.3811C89.1376 41.1691 89.2821 40.8752 89.2821 40.4994ZM94.7531 35.4403L94.8182 36.3148C95.3723 35.6354 96.1215 35.2958 97.0658 35.2958C98.0728 35.2958 98.7643 35.6933 99.1401 36.4883C99.6893 35.6933 100.472 35.2958 101.489 35.2958C102.337 35.2958 102.968 35.5439 103.382 36.0402C103.797 36.5316 104.004 37.2736 104.004 38.2662V43.2602H101.908V38.2734C101.908 37.8301 101.821 37.5073 101.648 37.3049C101.474 37.0978 101.169 36.9942 100.73 36.9942C100.104 36.9942 99.6701 37.2929 99.4292 37.8903L99.4364 43.2602H97.3477V38.2806C97.3477 37.8277 97.2586 37.5001 97.0803 37.2977C96.902 37.0953 96.5985 36.9942 96.1697 36.9942C95.577 36.9942 95.1482 37.2399 94.8832 37.7313V43.2602H92.7945V35.4403H94.7531ZM107.82 43.2602H105.724V35.4403H107.82V43.2602ZM105.601 33.4167C105.601 33.1035 105.705 32.8457 105.912 32.6434C106.124 32.441 106.411 32.3398 106.772 32.3398C107.129 32.3398 107.413 32.441 107.625 32.6434C107.837 32.8457 107.943 33.1035 107.943 33.4167C107.943 33.7347 107.834 33.9949 107.618 34.1972C107.406 34.3996 107.124 34.5008 106.772 34.5008C106.42 34.5008 106.136 34.3996 105.919 34.1972C105.707 33.9949 105.601 33.7347 105.601 33.4167ZM112.048 33.5179V35.4403H113.385V36.9725H112.048V40.8752C112.048 41.1643 112.103 41.3715 112.214 41.4967C112.325 41.622 112.537 41.6847 112.85 41.6847C113.081 41.6847 113.286 41.6678 113.464 41.6341V43.2168C113.055 43.3421 112.633 43.4047 112.2 43.4047C110.735 43.4047 109.988 42.6651 109.959 41.186V36.9725H108.817V35.4403H109.959V33.5179H112.048ZM116.587 36.2931C117.141 35.6282 117.837 35.2958 118.675 35.2958C120.371 35.2958 121.231 36.2811 121.255 38.2517V43.2602H119.167V38.3095C119.167 37.8614 119.07 37.5314 118.878 37.3194C118.685 37.1026 118.365 36.9942 117.916 36.9942C117.305 36.9942 116.861 37.2303 116.587 37.7024V43.2602H114.498V32.1591H116.587V36.2931Z" fill="white"/>
<path d="M51.6922 142.924C51.6922 142.529 51.5815 142.216 51.36 141.985C51.1434 141.749 50.7727 141.532 50.248 141.335C49.7233 141.138 49.2707 140.943 48.8904 140.75C48.5101 140.553 48.1828 140.329 47.9084 140.078C47.6388 139.823 47.427 139.525 47.2729 139.183C47.1237 138.841 47.049 138.434 47.049 137.963C47.049 137.149 47.309 136.482 47.8289 135.962C48.3488 135.443 49.0397 135.139 49.9014 135.053V133.507H51.0567V135.074C51.9088 135.195 52.5756 135.551 53.057 136.143C53.5384 136.73 53.7791 137.493 53.7791 138.432H51.6922C51.6922 137.854 51.5718 137.423 51.3311 137.139C51.0953 136.851 50.7775 136.706 50.378 136.706C49.9832 136.706 49.6775 136.819 49.4609 137.046C49.2443 137.267 49.1359 137.575 49.1359 137.97C49.1359 138.336 49.2418 138.629 49.4537 138.851C49.6655 139.072 50.0578 139.299 50.6307 139.53C51.2084 139.761 51.6826 139.98 52.0533 140.187C52.4239 140.389 52.7368 140.62 52.992 140.88C53.2471 141.135 53.4421 141.429 53.5769 141.761C53.7117 142.088 53.7791 142.471 53.7791 142.909C53.7791 143.727 53.5239 144.392 53.0137 144.902C52.5034 145.412 51.8005 145.713 50.9051 145.805V147.242H49.757V145.812C48.7701 145.706 48.0046 145.357 47.4606 144.765C46.9215 144.168 46.6519 143.376 46.6519 142.389H48.7388C48.7388 142.962 48.8736 143.403 49.1432 143.711C49.4176 144.014 49.8099 144.166 50.3202 144.166C50.7438 144.166 51.0784 144.055 51.3239 143.833C51.5694 143.607 51.6922 143.304 51.6922 142.924ZM57.3174 139.508H58.4295C58.959 139.508 59.3514 139.376 59.6065 139.111C59.8616 138.846 59.9892 138.495 59.9892 138.057C59.9892 137.633 59.8616 137.303 59.6065 137.067C59.3562 136.831 59.0096 136.713 58.5667 136.713C58.1671 136.713 57.8325 136.824 57.5629 137.046C57.2933 137.262 57.1586 137.546 57.1586 137.898H55.0717C55.0717 137.349 55.2185 136.858 55.5121 136.425C55.8106 135.986 56.2246 135.645 56.7542 135.399C57.2885 135.154 57.8758 135.031 58.5161 135.031C59.6282 135.031 60.4995 135.298 61.1301 135.832C61.7608 136.362 62.0761 137.094 62.0761 138.028C62.0761 138.509 61.9293 138.952 61.6356 139.356C61.342 139.761 60.9568 140.071 60.4803 140.288C61.0724 140.5 61.5129 140.817 61.8017 141.241C62.0954 141.665 62.2422 142.165 62.2422 142.743C62.2422 143.677 61.9004 144.426 61.2168 144.989C60.538 145.552 59.6378 145.834 58.5161 145.834C57.4667 145.834 56.6073 145.557 55.9382 145.003C55.2739 144.45 54.9417 143.718 54.9417 142.808H57.0286C57.0286 143.203 57.1754 143.525 57.4691 143.776C57.7675 144.026 58.1334 144.151 58.5667 144.151C59.0625 144.151 59.45 144.021 59.7293 143.761C60.0133 143.496 60.1553 143.147 60.1553 142.714C60.1553 141.665 59.5776 141.14 58.4222 141.14H57.3174V139.508ZM63.8814 144.664C63.8814 144.332 63.9921 144.062 64.2135 143.855C64.4398 143.648 64.7214 143.545 65.0584 143.545C65.4002 143.545 65.6818 143.648 65.9033 143.855C66.1295 144.062 66.2427 144.332 66.2427 144.664C66.2427 144.991 66.1319 145.258 65.9105 145.465C65.6891 145.668 65.405 145.769 65.0584 145.769C64.7166 145.769 64.435 145.668 64.2135 145.465C63.9921 145.258 63.8814 144.991 63.8814 144.664ZM74.1642 141.732H75.3557V143.415H74.1642V145.689H72.0773V143.415H67.7663L67.6724 142.1L72.0556 135.175H74.1642V141.732ZM69.7521 141.732H72.0773V138.02L71.9401 138.259L69.7521 141.732ZM82.1435 135.067V136.786H81.9413C80.9977 136.8 80.2371 137.046 79.6594 137.522C79.0866 137.999 78.7424 138.661 78.6268 139.508C79.1852 138.94 79.8905 138.656 80.7426 138.656C81.6573 138.656 82.3842 138.983 82.9234 139.638C83.4625 140.293 83.7321 141.154 83.7321 142.223C83.7321 142.907 83.5829 143.525 83.2844 144.079C82.9908 144.633 82.5719 145.063 82.0279 145.371C81.4888 145.68 80.8774 145.834 80.1938 145.834C79.0866 145.834 78.1911 145.449 77.5075 144.678C76.8288 143.908 76.4894 142.88 76.4894 141.595V140.844C76.4894 139.703 76.7036 138.697 77.1321 137.825C77.5653 136.949 78.1839 136.273 78.9879 135.796C79.7966 135.315 80.733 135.072 81.7969 135.067H82.1435ZM80.1071 140.331C79.7702 140.331 79.4645 140.42 79.1901 140.598C78.9157 140.772 78.7135 141.003 78.5835 141.292V141.927C78.5835 142.625 78.7207 143.171 78.9951 143.566C79.2695 143.956 79.6546 144.151 80.1505 144.151C80.5982 144.151 80.9592 143.975 81.2336 143.624C81.5128 143.268 81.6524 142.808 81.6524 142.245C81.6524 141.672 81.5128 141.21 81.2336 140.858C80.9544 140.507 80.5789 140.331 80.1071 140.331ZM89.8556 141.487C89.3116 142.021 88.6761 142.288 87.9492 142.288C87.0201 142.288 86.2763 141.97 85.7179 141.335C85.1595 140.695 84.8803 139.833 84.8803 138.75C84.8803 138.061 85.0295 137.431 85.328 136.858C85.6313 136.28 86.0525 135.832 86.5917 135.515C87.1308 135.192 87.7374 135.031 88.4114 135.031C89.1046 135.031 89.7208 135.204 90.26 135.551C90.7991 135.897 91.218 136.396 91.5164 137.046C91.8149 137.695 91.9666 138.439 91.9714 139.277V140.05C91.9714 141.802 91.5357 143.179 90.6643 144.18C89.793 145.181 88.5582 145.716 86.9599 145.783L86.4472 145.79V144.05L86.9094 144.043C88.7243 143.961 89.7064 143.109 89.8556 141.487ZM88.4619 140.692C88.7989 140.692 89.0877 140.606 89.3285 140.432C89.574 140.259 89.7593 140.05 89.8845 139.804V138.945C89.8845 138.237 89.7497 137.688 89.4801 137.298C89.2105 136.908 88.8495 136.713 88.3969 136.713C87.9781 136.713 87.6339 136.906 87.3643 137.291C87.0947 137.671 86.9599 138.15 86.9599 138.728C86.9599 139.301 87.0899 139.773 87.3499 140.143C87.6146 140.509 87.9853 140.692 88.4619 140.692ZM93.6611 144.664C93.6611 144.332 93.7718 144.062 93.9933 143.855C94.2195 143.648 94.5012 143.545 94.8381 143.545C95.1799 143.545 95.4616 143.648 95.683 143.855C95.9093 144.062 96.0224 144.332 96.0224 144.664C96.0224 144.991 95.9117 145.258 95.6902 145.465C95.4688 145.668 95.1847 145.769 94.8381 145.769C94.4963 145.769 94.2147 145.668 93.9933 145.465C93.7718 145.258 93.6611 144.991 93.6611 144.664ZM98.0804 140.519L98.687 135.175H104.579V136.916H100.398L100.138 139.176C100.634 138.911 101.161 138.779 101.72 138.779C102.721 138.779 103.506 139.089 104.074 139.71C104.642 140.331 104.926 141.2 104.926 142.317C104.926 142.996 104.782 143.605 104.493 144.144C104.209 144.678 103.799 145.095 103.265 145.393C102.731 145.687 102.1 145.834 101.373 145.834C100.738 145.834 100.148 145.706 99.604 145.451C99.0601 145.191 98.6292 144.827 98.3115 144.361C97.9986 143.894 97.8325 143.362 97.8132 142.765H99.8784C99.9218 143.203 100.073 143.545 100.333 143.79C100.598 144.031 100.942 144.151 101.366 144.151C101.838 144.151 102.201 143.983 102.456 143.646C102.712 143.304 102.839 142.822 102.839 142.201C102.839 141.604 102.692 141.147 102.399 140.829C102.105 140.512 101.689 140.353 101.149 140.353C100.654 140.353 100.252 140.483 99.9434 140.743L99.7412 140.931L98.0804 140.519ZM113.469 145.689H106.262V144.259L109.663 140.634C110.13 140.124 110.474 139.679 110.696 139.299C110.922 138.918 111.035 138.557 111.035 138.215C111.035 137.748 110.917 137.383 110.681 137.118C110.445 136.848 110.108 136.713 109.67 136.713C109.198 136.713 108.825 136.877 108.551 137.204C108.281 137.527 108.147 137.953 108.147 138.483H106.052C106.052 137.842 106.204 137.257 106.507 136.728C106.815 136.198 107.249 135.784 107.807 135.486C108.366 135.183 108.999 135.031 109.706 135.031C110.789 135.031 111.63 135.291 112.226 135.811C112.828 136.331 113.129 137.065 113.129 138.013C113.129 138.533 112.994 139.063 112.725 139.602C112.455 140.141 111.993 140.769 111.338 141.487L108.948 144.007H113.469V145.689Z" fill="white"/>
<path d="M181.189 115.502C180.78 115.903 180.303 116.104 179.758 116.104C179.06 116.104 178.502 115.865 178.083 115.388C177.664 114.908 177.454 114.261 177.454 113.448C177.454 112.931 177.566 112.458 177.79 112.028C178.018 111.594 178.334 111.258 178.739 111.02C179.143 110.777 179.599 110.656 180.105 110.656C180.625 110.656 181.087 110.787 181.492 111.047C181.897 111.307 182.211 111.681 182.435 112.169C182.659 112.657 182.773 113.215 182.777 113.844V114.424C182.777 115.739 182.45 116.772 181.796 117.524C181.142 118.276 180.215 118.677 179.015 118.727L178.63 118.733V117.427L178.977 117.421C180.339 117.36 181.077 116.72 181.189 115.502ZM180.143 114.906C180.395 114.906 180.612 114.841 180.793 114.711C180.977 114.581 181.116 114.424 181.21 114.239V113.594C181.21 113.063 181.109 112.651 180.907 112.358C180.704 112.066 180.433 111.919 180.094 111.919C179.779 111.919 179.521 112.064 179.319 112.353C179.116 112.638 179.015 112.998 179.015 113.432C179.015 113.862 179.113 114.216 179.308 114.494C179.507 114.769 179.785 114.906 180.143 114.906ZM189.211 115.394C189.211 116.485 188.985 117.32 188.533 117.898C188.082 118.476 187.42 118.765 186.549 118.765C185.689 118.765 185.032 118.482 184.576 117.914C184.121 117.347 183.888 116.534 183.877 115.475V114.023C183.877 112.92 184.105 112.084 184.56 111.513C185.019 110.942 185.679 110.656 186.539 110.656C187.399 110.656 188.056 110.94 188.512 111.507C188.967 112.071 189.2 112.882 189.211 113.941V115.394ZM187.644 113.8C187.644 113.146 187.554 112.671 187.373 112.375C187.196 112.075 186.918 111.925 186.539 111.925C186.17 111.925 185.897 112.068 185.72 112.353C185.547 112.635 185.455 113.078 185.444 113.681V115.6C185.444 116.243 185.53 116.722 185.704 117.036C185.881 117.347 186.163 117.502 186.549 117.502C186.933 117.502 187.209 117.352 187.379 117.053C187.549 116.753 187.637 116.294 187.644 115.676V113.8ZM194.078 118.657H192.512V112.619L190.642 113.199V111.925L193.91 110.754H194.078V118.657ZM201.792 112.863C201.792 113.246 201.696 113.585 201.504 113.882C201.313 114.178 201.049 114.415 200.713 114.592C201.096 114.776 201.4 115.031 201.624 115.356C201.848 115.678 201.96 116.057 201.96 116.494C201.96 117.195 201.721 117.75 201.244 118.158C200.767 118.563 200.119 118.765 199.298 118.765C198.478 118.765 197.828 118.561 197.347 118.153C196.866 117.745 196.626 117.192 196.626 116.494C196.626 116.057 196.738 115.676 196.962 115.351C197.186 115.025 197.488 114.772 197.867 114.592C197.531 114.415 197.267 114.178 197.076 113.882C196.888 113.585 196.794 113.246 196.794 112.863C196.794 112.19 197.018 111.656 197.466 111.258C197.914 110.857 198.523 110.656 199.293 110.656C200.059 110.656 200.666 110.855 201.114 111.253C201.566 111.647 201.792 112.183 201.792 112.863ZM200.388 116.38C200.388 116.037 200.288 115.762 200.09 115.556C199.891 115.351 199.624 115.248 199.287 115.248C198.955 115.248 198.689 115.351 198.491 115.556C198.292 115.759 198.193 116.033 198.193 116.38C198.193 116.716 198.29 116.987 198.485 117.193C198.68 117.399 198.951 117.502 199.298 117.502C199.638 117.502 199.904 117.403 200.095 117.204C200.29 117.006 200.388 116.731 200.388 116.38ZM200.225 112.938C200.225 112.631 200.144 112.386 199.981 112.201C199.819 112.013 199.589 111.919 199.293 111.919C199 111.919 198.773 112.01 198.61 112.19C198.447 112.371 198.366 112.62 198.366 112.938C198.366 113.253 198.447 113.506 198.61 113.697C198.773 113.889 199.002 113.985 199.298 113.985C199.595 113.985 199.822 113.889 199.981 113.697C200.144 113.506 200.225 113.253 200.225 112.938Z" fill="white"/>
<path d="M53.834 115.687H54.7283V116.95H53.834V118.657H52.2675V116.95H49.0315L48.961 115.963L52.2512 110.765H53.834V115.687ZM50.5221 115.687H52.2675V112.9L52.1645 113.079L50.5221 115.687ZM60.9402 111.643L57.8884 118.657H56.2352L59.2923 112.033H55.3679V110.765H60.9402V111.643ZM62.1814 114.776L62.6367 110.765H67.0598V112.071H63.9214L63.7263 113.768C64.0985 113.569 64.4941 113.47 64.9133 113.47C65.665 113.47 66.254 113.703 66.6804 114.169C67.1068 114.635 67.32 115.287 67.32 116.126C67.32 116.635 67.2116 117.092 66.9948 117.497C66.7816 117.898 66.4744 118.211 66.0733 118.435C65.6722 118.655 65.1988 118.765 64.6531 118.765C64.1762 118.765 63.7335 118.67 63.3251 118.478C62.9168 118.283 62.5934 118.01 62.3549 117.66C62.12 117.309 61.9953 116.91 61.9809 116.462H63.5311C63.5636 116.791 63.6775 117.047 63.8726 117.231C64.0714 117.412 64.3297 117.502 64.6477 117.502C65.0019 117.502 65.2747 117.376 65.4662 117.123C65.6577 116.866 65.7535 116.505 65.7535 116.039C65.7535 115.591 65.6433 115.248 65.4229 115.009C65.2024 114.771 64.8898 114.651 64.4851 114.651C64.1129 114.651 63.8112 114.749 63.5799 114.944L63.4281 115.085L62.1814 114.776ZM72.5724 110.684V111.974H72.4206C71.7124 111.984 71.1414 112.169 70.7078 112.526C70.2778 112.884 70.0194 113.381 69.9327 114.017C70.3518 113.591 70.8812 113.377 71.5208 113.377C72.2074 113.377 72.7531 113.623 73.1578 114.115C73.5625 114.606 73.7649 115.253 73.7649 116.055C73.7649 116.568 73.6529 117.033 73.4288 117.448C73.2084 117.864 72.894 118.187 72.4857 118.418C72.081 118.65 71.622 118.765 71.1089 118.765C70.2778 118.765 69.6056 118.476 69.0925 117.898C68.583 117.32 68.3282 116.548 68.3282 115.584V115.02C68.3282 114.163 68.489 113.408 68.8106 112.754C69.1359 112.096 69.6002 111.589 70.2037 111.231C70.8108 110.87 71.5136 110.687 72.3122 110.684H72.5724ZM71.0438 114.635C70.7909 114.635 70.5614 114.702 70.3555 114.836C70.1495 114.966 69.9977 115.139 69.9001 115.356V115.833C69.9001 116.357 70.0031 116.767 70.2091 117.063C70.4151 117.356 70.7042 117.502 71.0764 117.502C71.4124 117.502 71.6835 117.371 71.8894 117.107C72.099 116.839 72.2038 116.494 72.2038 116.071C72.2038 115.641 72.099 115.295 71.8894 115.031C71.6798 114.767 71.398 114.635 71.0438 114.635Z" fill="white"/>
<path d="M115.688 115.848C115.681 115.415 115.816 114.989 116.078 114.625C116.339 114.262 116.714 113.976 117.156 113.806C117.598 113.635 118.085 113.587 118.557 113.668C119.029 113.748 119.464 113.953 119.807 114.258C120.149 114.562 120.383 114.951 120.479 115.376C120.576 115.801 120.53 116.242 120.348 116.643C120.166 117.044 119.856 117.387 119.457 117.629C119.058 117.87 118.588 117.999 118.108 117.999C117.471 118.004 116.858 117.779 116.405 117.376C115.951 116.973 115.693 116.423 115.688 115.848ZM106.617 115.848C106.609 115.415 106.745 114.989 107.006 114.625C107.268 114.262 107.643 113.976 108.085 113.806C108.526 113.635 109.014 113.587 109.486 113.667C109.958 113.748 110.393 113.953 110.735 114.257C111.077 114.562 111.312 114.951 111.408 115.376C111.505 115.8 111.459 116.241 111.277 116.643C111.095 117.044 110.784 117.387 110.386 117.629C109.987 117.87 109.517 117.999 109.037 117.999C108.4 118.003 107.788 117.779 107.334 117.376C106.88 116.973 106.622 116.423 106.617 115.848H106.617ZM97.543 115.848C97.5355 115.415 97.671 114.989 97.9324 114.625C98.1937 114.262 98.5691 113.976 99.0106 113.806C99.4522 113.635 99.94 113.587 100.412 113.667C100.884 113.748 101.319 113.953 101.661 114.257C102.003 114.562 102.238 114.951 102.334 115.376C102.431 115.8 102.385 116.241 102.203 116.643C102.021 117.044 101.711 117.387 101.312 117.629C100.913 117.87 100.443 117.999 99.963 117.999C99.3261 118.004 98.7134 117.779 98.2596 117.376C97.8058 116.973 97.548 116.423 97.543 115.848ZM88.472 115.848C88.4645 115.415 88.6001 114.989 88.8615 114.625C89.1228 114.262 89.4982 113.976 89.9398 113.806C90.3814 113.635 90.8693 113.587 91.3413 113.668C91.8133 113.748 92.248 113.953 92.5903 114.258C92.9325 114.562 93.1668 114.951 93.2632 115.376C93.3596 115.801 93.3139 116.242 93.1317 116.643C92.9496 117.044 92.6393 117.387 92.2404 117.629C91.8415 117.87 91.3721 117.999 90.8917 117.999C90.2549 118.004 89.6422 117.779 89.1885 117.376C88.7347 116.973 88.4769 116.423 88.472 115.848Z" fill="white"/>
<path d="M158.035 115.848C158.028 115.415 158.163 114.989 158.424 114.625C158.686 114.262 159.061 113.976 159.503 113.806C159.944 113.635 160.432 113.587 160.904 113.667C161.376 113.748 161.811 113.953 162.153 114.257C162.496 114.562 162.73 114.951 162.826 115.376C162.923 115.8 162.877 116.241 162.695 116.643C162.513 117.044 162.203 117.387 161.804 117.629C161.405 117.87 160.935 117.999 160.455 117.999C159.818 118.004 159.205 117.779 158.752 117.376C158.298 116.973 158.04 116.423 158.035 115.848ZM148.961 115.848C148.953 115.415 149.089 114.989 149.35 114.625C149.611 114.262 149.987 113.976 150.428 113.806C150.87 113.635 151.358 113.587 151.83 113.667C152.302 113.748 152.737 113.953 153.079 114.257C153.421 114.562 153.655 114.951 153.752 115.376C153.848 115.8 153.803 116.241 153.62 116.643C153.438 117.044 153.128 117.387 152.729 117.629C152.33 117.87 151.861 117.999 151.381 117.999C150.744 118.004 150.131 117.78 149.677 117.376C149.223 116.973 148.965 116.423 148.96 115.848H148.961ZM139.89 115.848C139.882 115.415 140.018 114.989 140.279 114.625C140.541 114.262 140.916 113.976 141.358 113.806C141.799 113.635 142.287 113.587 142.759 113.667C143.231 113.748 143.666 113.953 144.008 114.257C144.35 114.562 144.585 114.951 144.681 115.376C144.777 115.8 144.732 116.241 144.55 116.643C144.368 117.044 144.057 117.387 143.658 117.629C143.26 117.87 142.79 117.999 142.31 117.999C141.673 118.004 141.06 117.78 140.606 117.376C140.152 116.973 139.894 116.423 139.889 115.848H139.89ZM130.816 115.848C130.808 115.415 130.944 114.989 131.205 114.625C131.467 114.262 131.842 113.976 132.284 113.806C132.725 113.635 133.213 113.587 133.685 113.667C134.157 113.748 134.592 113.953 134.934 114.257C135.276 114.562 135.51 114.951 135.607 115.376C135.703 115.8 135.658 116.241 135.476 116.643C135.294 117.044 134.983 117.387 134.584 117.629C134.186 117.87 133.716 117.999 133.236 117.999C132.599 118.004 131.986 117.78 131.532 117.376C131.078 116.973 130.82 116.423 130.815 115.848H130.816Z" fill="white"/>
<path opacity="0.6" d="M262.95 148.416C269.713 148.416 275.196 143.468 275.196 137.364C275.196 131.261 269.713 126.313 262.95 126.313C256.186 126.313 250.703 131.261 250.703 137.364C250.703 143.468 256.186 148.416 262.95 148.416Z" fill="white"/>
<path d="M247.645 148.416C254.409 148.416 259.892 143.468 259.892 137.365C259.892 131.261 254.409 126.313 247.645 126.313C240.881 126.313 235.398 131.261 235.398 137.365C235.398 143.468 240.881 148.416 247.645 148.416Z" fill="white"/>
</g>
<defs>
<filter id="filter0_d" x="0" y="0" width="322" height="205" filterUnits="userSpaceOnUse" color-interpolation-filters="sRGB">
<feFlood flood-opacity="0" result="BackgroundImageFix"/>
<feColorMatrix in="SourceAlpha" type="matrix" values="0 0 0 0 0 0 0 0 0 0 0 0 0 0 0 0 0 0 127 0" result="hardAlpha"/>
<feOffset dy="12"/>
<feGaussianBlur stdDeviation="12"/>
<feColorMatrix type="matrix" values="0 0 0 0 0.872452 0 0 0 0 0.872452 0 0 0 0 0.872452 0 0 0 0.199465 0"/>
<feBlend mode="normal" in2="BackgroundImageFix" result="effect1_dropShadow"/>
<feBlend mode="normal" in="SourceGraphic" in2="effect1_dropShadow" result="shape"/>
</filter>
</defs>
</svg>
