<svg id="Capa_1" enable-background="new 0 0 510.638 510.638" height="512" viewBox="0 0 510.638 510.638" width="512" xmlns="http://www.w3.org/2000/svg"><g><path d="m421.856 274.437-71.174 14.234-31.759-31.759 60.258-60.259 66.411 66.411 63.917-63.917-46.669-46.669v-42.705l-109.773-109.773-85.27 85.27 47.467 47.467-60.259 60.259-31.759-31.759 14.246-71.232-69.359-68.5-61.997-17.714-41.757 41.758 64.056 64.056-21.491 21.491-64.057-64.056-41.758 41.758 17.742 62.093 69.344 68.486 71.115-14.223 31.759 31.759-180.326 180.323c-12.624 12.626-12.624 33.17.001 45.796l18.121 18.121c6.116 6.116 14.249 9.485 22.898 9.485s16.782-3.369 22.897-9.485l180.325-180.323 31.759 31.759-14.234 71.173 68.922 68.922 62.045 17.728 41.759-41.758-64.057-64.056 21.491-21.491 64.057 64.056 41.758-41.758-17.727-62.045zm-68.789-232.01 79.773 79.773v42.704l34.243 34.244-21.491 21.491-135.369-135.369zm-16.59 111.522 21.491 21.491-60.258 60.259-21.491-21.491zm-283.009 325.992c-.576.576-1.233.697-1.684.697s-1.107-.121-1.685-.698l-18.121-18.121c-.93-.929-.93-2.441-.001-3.37l180.324-180.324 21.491 21.491zm413.279-75.205-64.057-64.056-63.917 63.917 64.057 64.056-8.063 8.063-37.598-10.742-52.072-52.073 14.234-71.173-150.142-150.141-71.232 14.247-52.404-51.755-10.729-37.549 8.063-8.063 64.056 64.056 63.917-63.917-64.056-64.056 8.062-8.063 37.646 10.756 52.391 51.741-14.223 71.114 150.142 150.141 71.174-14.234 52.071 52.072 10.742 37.598z"/></g></svg>