<svg width="41" height="145" viewBox="0 0 41 145" fill="none" xmlns="http://www.w3.org/2000/svg">
<path d="M241.04 0H10.9603C4.90711 0 0 4.4484 0 9.93578V135.064C0 140.552 4.90711 145 10.9603 145H241.04C247.093 145 252 140.552 252 135.064V9.93578C252 4.4484 247.093 0 241.04 0Z" fill="#EECDE0"/>
<mask id="mask0" mask-type="alpha" maskUnits="userSpaceOnUse" x="0" y="0" width="252" height="145">
<path d="M241.04 0H10.9603C4.90711 0 0 4.4484 0 9.93578V135.064C0 140.552 4.90711 145 10.9603 145H241.04C247.093 145 252 140.552 252 135.064V9.93578C252 4.4484 247.093 0 241.04 0Z" fill="#EECDE0"/>
</mask>
<g mask="url(#mask0)">
<path d="M126.177 107.829C118.648 134.38 48.4075 173.796 2.60147 155.747C-31.373 142.359 -48.9337 98.5245 -34.8988 50.8257C-25.1404 17.6609 2.12426 -24.954 24.0546 -28.446C46.5982 -32.0366 41.9043 9.15383 80.2724 55.942C108.831 90.7681 130.79 91.5567 126.177 107.829Z" fill="#423F88"/>
</g>
<path d="M24.4364 76.6786H22.1062L21.6632 78.0076H20.25L22.6511 71.5574H23.8827L26.2971 78.0076H24.8839L24.4364 76.6786ZM22.465 75.6021H24.0776L23.2669 73.1877L22.465 75.6021ZM27.8033 73.2143L27.8432 73.7503C28.1828 73.3339 28.642 73.1257 29.2209 73.1257C29.8382 73.1257 30.262 73.3693 30.4923 73.8567C30.829 73.3693 31.3089 73.1257 31.9321 73.1257C32.4519 73.1257 32.8388 73.2778 33.0928 73.582C33.3468 73.8832 33.4738 74.3381 33.4738 74.9464V78.0076H32.1891V74.9509C32.1891 74.6792 32.1359 74.4813 32.0296 74.3572C31.9232 74.2303 31.7357 74.1668 31.467 74.1668C31.083 74.1668 30.8172 74.3499 30.6695 74.7161L30.674 78.0076H29.3937V74.9553C29.3937 74.6777 29.339 74.4769 29.2298 74.3528C29.1205 74.2288 28.9344 74.1668 28.6716 74.1668C28.3083 74.1668 28.0455 74.3174 27.883 74.6186V78.0076H26.6027V73.2143H27.8033ZM37.2393 78.0076C37.1803 77.8924 37.1374 77.7492 37.1109 77.5779C36.8008 77.9235 36.3976 78.0962 35.9015 78.0962C35.4319 78.0962 35.042 77.9604 34.7319 77.6887C34.4248 77.417 34.2712 77.0744 34.2712 76.6609C34.2712 76.1529 34.4587 75.7631 34.8338 75.4913C35.2118 75.2196 35.7567 75.0823 36.4685 75.0794H37.0577V74.8047C37.0577 74.5832 37.0001 74.406 36.8849 74.2731C36.7727 74.1402 36.594 74.0737 36.3489 74.0737C36.1333 74.0737 35.9635 74.1254 35.8394 74.2288C35.7183 74.3321 35.6578 74.4739 35.6578 74.6541H34.3775C34.3775 74.3764 34.4632 74.1195 34.6345 73.8832C34.8058 73.647 35.0479 73.4624 35.361 73.3295C35.674 73.1936 36.0255 73.1257 36.4153 73.1257C37.006 73.1257 37.4741 73.2748 37.8197 73.5731C38.1682 73.8685 38.3424 74.2849 38.3424 74.8224V76.9001C38.3454 77.3549 38.4089 77.699 38.5329 77.9323V78.0076H37.2393ZM36.1806 77.1172C36.3696 77.1172 36.5438 77.0758 36.7033 76.9931C36.8628 76.9075 36.9809 76.7938 37.0577 76.652V75.828H36.5793C35.9384 75.828 35.5973 76.0495 35.5559 76.4925L35.5515 76.5679C35.5515 76.7273 35.6076 76.8588 35.7198 76.9621C35.8321 77.0655 35.9856 77.1172 36.1806 77.1172ZM40.7967 76.9754H43.1402V78.0076H39.162V77.2279L41.4169 74.2509H39.2284V73.2143H43.0693V73.9718L40.7967 76.9754ZM43.6718 75.5667C43.6718 75.0912 43.7634 74.6674 43.9465 74.2952C44.1296 73.9231 44.3924 73.6351 44.735 73.4314C45.0806 73.2276 45.4808 73.1257 45.9356 73.1257C46.5824 73.1257 47.1095 73.3236 47.5171 73.7193C47.9276 74.1151 48.1565 74.6526 48.2038 75.3319L48.2126 75.6597C48.2126 76.3951 48.0074 76.9858 47.5969 77.4317C47.1863 77.8747 46.6355 78.0962 45.9444 78.0962C45.2533 78.0962 44.7011 77.8747 44.2876 77.4317C43.8771 76.9887 43.6718 76.3862 43.6718 75.6242V75.5667ZM44.9521 75.6597C44.9521 76.1145 45.0377 76.463 45.209 76.7052C45.3803 76.9444 45.6255 77.064 45.9444 77.064C46.2545 77.064 46.4967 76.9459 46.671 76.7096C46.8452 76.4704 46.9323 76.0894 46.9323 75.5667C46.9323 75.1207 46.8452 74.7752 46.671 74.53C46.4967 74.2849 46.2516 74.1623 45.9356 74.1623C45.6225 74.1623 45.3803 74.2849 45.209 74.53C45.0377 74.7722 44.9521 75.1488 44.9521 75.6597ZM50.1796 73.2143L50.2195 73.768C50.562 73.3398 51.0213 73.1257 51.5972 73.1257C52.1052 73.1257 52.4832 73.2748 52.7313 73.5731C52.9794 73.8714 53.1064 74.3174 53.1123 74.911V78.0076H51.832V74.942C51.832 74.6703 51.7729 74.4739 51.6548 74.3528C51.5367 74.2288 51.3403 74.1668 51.0656 74.1668C50.7053 74.1668 50.4351 74.3203 50.2549 74.6275V78.0076H48.9746V73.2143H50.1796ZM57.7594 75.735V78.0076H56.4304V71.5574H58.9467C59.4311 71.5574 59.8563 71.646 60.2226 71.8232C60.5917 72.0004 60.8753 72.253 61.0731 72.5808C61.271 72.9057 61.3699 73.2763 61.3699 73.6927C61.3699 74.3248 61.1529 74.8239 60.7187 75.1901C60.2875 75.5534 59.6895 75.735 58.9245 75.735H57.7594ZM57.7594 74.6585H58.9467C59.2982 74.6585 59.5654 74.5758 59.7485 74.4104C59.9346 74.245 60.0276 74.0087 60.0276 73.7016C60.0276 73.3856 59.9346 73.1301 59.7485 72.9352C59.5625 72.7403 59.3055 72.6399 58.9777 72.6339H57.7594V74.6585ZM63.554 78.0076H62.2693V71.203H63.554V78.0076ZM67.3904 78.0076C67.3314 77.8924 67.2885 77.7492 67.2619 77.5779C66.9518 77.9235 66.5487 78.0962 66.0525 78.0962C65.5829 78.0962 65.1931 77.9604 64.883 77.6887C64.5758 77.417 64.4223 77.0744 64.4223 76.6609C64.4223 76.1529 64.6098 75.7631 64.9849 75.4913C65.3629 75.2196 65.9078 75.0823 66.6196 75.0794H67.2088V74.8047C67.2088 74.5832 67.1512 74.406 67.036 74.2731C66.9238 74.1402 66.7451 74.0737 66.5 74.0737C66.2844 74.0737 66.1146 74.1254 65.9905 74.2288C65.8694 74.3321 65.8089 74.4739 65.8089 74.6541H64.5286C64.5286 74.3764 64.6142 74.1195 64.7855 73.8832C64.9568 73.647 65.199 73.4624 65.5121 73.3295C65.8251 73.1936 66.1766 73.1257 66.5664 73.1257C67.1571 73.1257 67.6252 73.2748 67.9708 73.5731C68.3193 73.8685 68.4935 74.2849 68.4935 74.8224V76.9001C68.4965 77.3549 68.56 77.699 68.684 77.9323V78.0076H67.3904ZM66.3316 77.1172C66.5206 77.1172 66.6949 77.0758 66.8544 76.9931C67.0139 76.9075 67.132 76.7938 67.2088 76.652V75.828H66.7303C66.0895 75.828 65.7483 76.0495 65.707 76.4925L65.7026 76.5679C65.7026 76.7273 65.7587 76.8588 65.8709 76.9621C65.9831 77.0655 66.1367 77.1172 66.3316 77.1172ZM71.0098 72.0359V73.2143H71.8294V74.1535H71.0098V76.5457C71.0098 76.7229 71.0438 76.8499 71.1117 76.9267C71.1796 77.0035 71.3096 77.0419 71.5015 77.0419C71.6433 77.0419 71.7688 77.0315 71.8781 77.0109V77.981C71.627 78.0578 71.3686 78.0962 71.1028 78.0962C70.205 78.0962 69.7472 77.6429 69.7295 76.7362V74.1535H69.0295V73.2143H69.7295V72.0359H71.0098ZM73.8938 78.0076H72.609V73.2143H73.8938V78.0076ZM72.5337 71.9739C72.5337 71.7819 72.5972 71.6239 72.7242 71.4999C72.8542 71.3758 73.0299 71.3138 73.2514 71.3138C73.47 71.3138 73.6442 71.3758 73.7742 71.4999C73.9041 71.6239 73.9691 71.7819 73.9691 71.9739C73.9691 72.1688 73.9026 72.3283 73.7697 72.4523C73.6398 72.5764 73.467 72.6384 73.2514 72.6384C73.0358 72.6384 72.8616 72.5764 72.7287 72.4523C72.5987 72.3283 72.5337 72.1688 72.5337 71.9739ZM76.131 73.2143L76.1708 73.768C76.5134 73.3398 76.9727 73.1257 77.5486 73.1257C78.0566 73.1257 78.4346 73.2748 78.6827 73.5731C78.9308 73.8714 79.0578 74.3174 79.0637 74.911V78.0076H77.7834V74.942C77.7834 74.6703 77.7243 74.4739 77.6062 74.3528C77.488 74.2288 77.2916 74.1668 77.017 74.1668C76.6567 74.1668 76.3864 74.3203 76.2063 74.6275V78.0076H74.926V73.2143H76.131ZM81.3895 78.0076H80.1047V73.2143H81.3895V78.0076ZM80.0294 71.9739C80.0294 71.7819 80.0929 71.6239 80.2199 71.4999C80.3499 71.3758 80.5256 71.3138 80.7471 71.3138C80.9656 71.3138 81.1399 71.3758 81.2698 71.4999C81.3998 71.6239 81.4648 71.7819 81.4648 71.9739C81.4648 72.1688 81.3983 72.3283 81.2654 72.4523C81.1355 72.5764 80.9627 72.6384 80.7471 72.6384C80.5315 72.6384 80.3572 72.5764 80.2243 72.4523C80.0944 72.3283 80.0294 72.1688 80.0294 71.9739ZM85.3189 77.5203C85.0029 77.9043 84.5658 78.0962 84.0076 78.0962C83.4937 78.0962 83.1009 77.9486 82.8292 77.6532C82.5605 77.3579 82.4231 76.9252 82.4172 76.3552V73.2143H83.6975V76.3109C83.6975 76.81 83.9249 77.0596 84.3798 77.0596C84.8139 77.0596 85.1122 76.909 85.2746 76.6077V73.2143H86.5593V78.0076H85.3544L85.3189 77.5203ZM88.7257 73.2143L88.7655 73.7503C89.1052 73.3339 89.5644 73.1257 90.1433 73.1257C90.7605 73.1257 91.1844 73.3693 91.4147 73.8567C91.7514 73.3693 92.2313 73.1257 92.8545 73.1257C93.3743 73.1257 93.7612 73.2778 94.0152 73.582C94.2692 73.8832 94.3962 74.3381 94.3962 74.9464V78.0076H93.1114V74.9509C93.1114 74.6792 93.0583 74.4813 92.9519 74.3572C92.8456 74.2303 92.6581 74.1668 92.3893 74.1668C92.0054 74.1668 91.7396 74.3499 91.5919 74.7161L91.5963 78.0076H90.3161V74.9553C90.3161 74.6777 90.2614 74.4769 90.1521 74.3528C90.0429 74.2288 89.8568 74.1668 89.594 74.1668C89.2307 74.1668 88.9678 74.3174 88.8054 74.6186V78.0076H87.5251V73.2143H88.7257Z" fill="white"/>
<path d="M24.9876 19.2535H26.9829V25.9575C26.9829 26.5738 26.8454 27.1191 26.5705 27.5936C26.3 28.0635 25.9165 28.4271 25.4199 28.6843C24.9233 28.9414 24.3624 29.07 23.7373 29.07C22.713 29.07 21.9149 28.8106 21.343 28.2919C20.771 27.7687 20.485 27.0305 20.485 26.0772H22.4936C22.4936 26.5516 22.5933 26.9019 22.7929 27.128C22.9924 27.3541 23.3072 27.4672 23.7373 27.4672C24.1186 27.4672 24.4223 27.3364 24.6484 27.0748C24.8745 26.8132 24.9876 26.4407 24.9876 25.9575V19.2535ZM28.2665 25.2724C28.2665 24.5586 28.4039 23.9223 28.6788 23.3636C28.9537 22.805 29.3483 22.3727 29.8626 22.0667C30.3814 21.7608 30.9822 21.6078 31.665 21.6078C32.636 21.6078 33.4275 21.9049 34.0393 22.499C34.6556 23.0932 34.9993 23.9001 35.0702 24.9199L35.0835 25.4121C35.0835 26.5161 34.7754 27.4029 34.1591 28.0724C33.5427 28.7375 32.7158 29.07 31.6783 29.07C30.6408 29.07 29.8117 28.7375 29.1909 28.0724C28.5746 27.4073 28.2665 26.5028 28.2665 25.3589V25.2724ZM30.1885 25.4121C30.1885 26.0949 30.3171 26.6181 30.5743 26.9817C30.8314 27.3408 31.1995 27.5204 31.6783 27.5204C32.1439 27.5204 32.5074 27.343 32.769 26.9883C33.0306 26.6292 33.1614 26.0572 33.1614 25.2724C33.1614 24.6029 33.0306 24.0842 32.769 23.7161C32.5074 23.3481 32.1394 23.1641 31.665 23.1641C31.195 23.1641 30.8314 23.3481 30.5743 23.7161C30.3171 24.0797 30.1885 24.645 30.1885 25.4121ZM38.1429 22.5256C38.6528 21.9138 39.2935 21.6078 40.065 21.6078C41.6257 21.6078 42.4171 22.5146 42.4393 24.328V28.937H40.5172V24.3812C40.5172 23.9689 40.4285 23.6652 40.2512 23.4701C40.0738 23.2705 39.779 23.1708 39.3666 23.1708C38.8035 23.1708 38.3956 23.388 38.1429 23.8226V28.937H36.2208V18.7214H38.1429V22.5256ZM45.6583 21.7409L45.7181 22.5722C46.2325 21.9293 46.9219 21.6078 47.7865 21.6078C48.5492 21.6078 49.1167 21.8317 49.4891 22.2796C49.8616 22.7274 50.0522 23.3969 50.0611 24.2881V28.937H48.139V24.3347C48.139 23.9267 48.0503 23.6319 47.873 23.4501C47.6956 23.2639 47.4008 23.1708 46.9884 23.1708C46.4475 23.1708 46.0418 23.4013 45.7713 23.8625V28.937H43.8493V21.7409H45.6583ZM60.0639 26.3964C60.0639 26.0195 59.9309 25.7313 59.6648 25.5318C59.3988 25.3278 58.92 25.115 58.2283 24.8933C57.5366 24.6672 56.989 24.4455 56.5855 24.2283C55.4859 23.6341 54.9361 22.8338 54.9361 21.8273C54.9361 21.3041 55.0824 20.8386 55.3751 20.4306C55.6722 20.0183 56.0956 19.6968 56.6454 19.4663C57.1996 19.2357 57.8204 19.1204 58.5076 19.1204C59.1993 19.1204 59.8156 19.2468 60.3565 19.4995C60.8975 19.7478 61.3165 20.1003 61.6135 20.557C61.915 21.0137 62.0658 21.5325 62.0658 22.1133H60.0705C60.0705 21.6699 59.9309 21.3263 59.6515 21.0824C59.3722 20.8341 58.9798 20.71 58.4744 20.71C57.9866 20.71 57.6075 20.8142 57.3371 21.0226C57.0666 21.2265 56.9314 21.497 56.9314 21.834C56.9314 22.1488 57.0888 22.4126 57.4036 22.6254C57.7228 22.8382 58.1906 23.0378 58.8069 23.224C59.942 23.5654 60.7689 23.9888 61.2876 24.4943C61.8064 24.9997 62.0658 25.6294 62.0658 26.3831C62.0658 27.2211 61.7488 27.8795 61.1147 28.3584C60.4807 28.8328 59.6272 29.07 58.5542 29.07C57.8093 29.07 57.1309 28.9348 56.519 28.6643C55.9071 28.3894 55.4394 28.0148 55.1157 27.5403C54.7965 27.0659 54.6368 26.5161 54.6368 25.8909H56.6387C56.6387 26.9595 57.2772 27.4938 58.5542 27.4938C59.0286 27.4938 59.3988 27.3985 59.6648 27.2078C59.9309 27.0127 60.0639 26.7423 60.0639 26.3964ZM65.0985 21.7409L65.1584 22.5456C65.6683 21.9204 66.3578 21.6078 67.2268 21.6078C68.1535 21.6078 68.7897 21.9736 69.1356 22.7052C69.641 21.9736 70.3615 21.6078 71.2971 21.6078C72.0774 21.6078 72.6583 21.8362 73.0396 22.2929C73.4209 22.7451 73.6116 23.4279 73.6116 24.3413V28.937H71.6828V24.348C71.6828 23.94 71.603 23.643 71.4434 23.4568C71.2838 23.2661 71.0022 23.1708 70.5987 23.1708C70.0223 23.1708 69.6233 23.4457 69.4016 23.9955L69.4083 28.937H67.4862V24.3546C67.4862 23.9378 67.4041 23.6363 67.2401 23.4501C67.076 23.2639 66.7967 23.1708 66.4021 23.1708C65.8567 23.1708 65.4621 23.3969 65.2183 23.8492V28.937H63.2962V21.7409H65.0985ZM77.1232 28.937H75.1944V21.7409H77.1232V28.937ZM75.0814 19.8786C75.0814 19.5904 75.1767 19.3532 75.3674 19.167C75.5625 18.9808 75.8263 18.8877 76.1588 18.8877C76.4869 18.8877 76.7485 18.9808 76.9436 19.167C77.1387 19.3532 77.2362 19.5904 77.2362 19.8786C77.2362 20.1713 77.1365 20.4107 76.937 20.5969C76.7419 20.7831 76.4825 20.8763 76.1588 20.8763C75.8351 20.8763 75.5735 20.7831 75.374 20.5969C75.1789 20.4107 75.0814 20.1713 75.0814 19.8786ZM81.0139 19.9717V21.7409H82.2443V23.1508H81.0139V26.7423C81.0139 27.0083 81.0649 27.1989 81.1669 27.3142C81.2688 27.4295 81.4639 27.4871 81.7521 27.4871C81.965 27.4871 82.1534 27.4716 82.3174 27.4406V28.8971C81.9406 29.0124 81.5526 29.07 81.1536 29.07C79.8057 29.07 79.1184 28.3894 79.0918 27.0282V23.1508H78.041V21.7409H79.0918V19.9717H81.0139ZM85.1906 22.5256C85.7005 21.9138 86.3412 21.6078 87.1127 21.6078C88.6734 21.6078 89.4648 22.5146 89.487 24.328V28.937H87.5649V24.3812C87.5649 23.9689 87.4762 23.6652 87.2989 23.4701C87.1215 23.2705 86.8267 23.1708 86.4143 23.1708C85.8512 23.1708 85.4433 23.388 85.1906 23.8226V28.937H83.2685V18.7214H85.1906V22.5256Z" fill="white"/>
<path d="M25.4685 120.995C25.4685 120.632 25.3666 120.344 25.1629 120.131C24.9635 119.914 24.6224 119.715 24.1395 119.533C23.6567 119.352 23.2402 119.172 22.8903 118.995C22.5403 118.813 22.2391 118.607 21.9866 118.377C21.7385 118.142 21.5436 117.868 21.4018 117.553C21.2645 117.239 21.1958 116.864 21.1958 116.43C21.1958 115.681 21.435 115.068 21.9135 114.59C22.3919 114.111 23.0276 113.832 23.8206 113.752V112.33H24.8838V113.772C25.6679 113.883 26.2814 114.211 26.7244 114.756C27.1674 115.296 27.3889 115.998 27.3889 116.862H25.4685C25.4685 116.33 25.3578 115.934 25.1363 115.673C24.9192 115.407 24.6268 115.274 24.2591 115.274C23.8959 115.274 23.6146 115.378 23.4152 115.586C23.2159 115.79 23.1162 116.074 23.1162 116.437C23.1162 116.773 23.2137 117.044 23.4086 117.247C23.6035 117.451 23.9645 117.659 24.4917 117.872C25.0233 118.085 25.4597 118.286 25.8008 118.477C26.1419 118.663 26.4298 118.876 26.6646 119.115C26.8994 119.35 27.0788 119.62 27.2029 119.925C27.3269 120.227 27.3889 120.579 27.3889 120.982C27.3889 121.735 27.1541 122.346 26.6846 122.816C26.215 123.286 25.5682 123.562 24.7442 123.647V124.969H23.6877V123.653C22.7795 123.556 22.0752 123.235 21.5746 122.69C21.0784 122.14 20.8303 121.412 20.8303 120.504H22.7507C22.7507 121.031 22.8748 121.436 23.1228 121.72C23.3754 121.999 23.7364 122.138 24.206 122.138C24.5958 122.138 24.9037 122.036 25.1296 121.833C25.3556 121.624 25.4685 121.345 25.4685 120.995ZM30.645 117.852H31.6683C32.1556 117.852 32.5166 117.73 32.7514 117.487C32.9862 117.243 33.1036 116.92 33.1036 116.517C33.1036 116.127 32.9862 115.823 32.7514 115.606C32.5211 115.389 32.2021 115.281 31.7945 115.281C31.4268 115.281 31.119 115.382 30.8709 115.586C30.6228 115.786 30.4988 116.047 30.4988 116.37H28.5784C28.5784 115.865 28.7135 115.413 28.9837 115.015C29.2584 114.612 29.6393 114.297 30.1266 114.071C30.6184 113.845 31.1588 113.732 31.748 113.732C32.7713 113.732 33.5732 113.978 34.1535 114.47C34.7338 114.957 35.024 115.631 35.024 116.49C35.024 116.933 34.8889 117.341 34.6186 117.713C34.3484 118.085 33.994 118.37 33.5555 118.57C34.1003 118.765 34.5057 119.057 34.7715 119.447C35.0417 119.837 35.1768 120.298 35.1768 120.829C35.1768 121.689 34.8623 122.377 34.2332 122.896C33.6086 123.414 32.7802 123.673 31.748 123.673C30.7823 123.673 29.9915 123.418 29.3758 122.909C28.7644 122.4 28.4588 121.726 28.4588 120.889H30.3792C30.3792 121.252 30.5143 121.549 30.7845 121.779C31.0592 122.01 31.3958 122.125 31.7945 122.125C32.2508 122.125 32.6074 122.005 32.8644 121.766C33.1257 121.522 33.2564 121.201 33.2564 120.803C33.2564 119.837 32.7248 119.354 31.6616 119.354H30.645V117.852ZM36.6852 122.597C36.6852 122.291 36.7871 122.043 36.9909 121.852C37.1991 121.662 37.4583 121.567 37.7684 121.567C38.0829 121.567 38.342 121.662 38.5458 121.852C38.754 122.043 38.8581 122.291 38.8581 122.597C38.8581 122.898 38.7563 123.144 38.5525 123.334C38.3487 123.52 38.0873 123.613 37.7684 123.613C37.4538 123.613 37.1947 123.52 36.9909 123.334C36.7871 123.144 36.6852 122.898 36.6852 122.597ZM46.1477 119.899H47.2441V121.447H46.1477V123.54H44.2273V121.447H40.2602L40.1738 120.238L44.2073 113.865H46.1477V119.899ZM42.0876 119.899H44.2273V116.483L44.101 116.703L42.0876 119.899ZM53.4904 113.766V115.347H53.3043C52.436 115.36 51.7361 115.586 51.2045 116.025C50.6773 116.463 50.3606 117.073 50.2543 117.852C50.7681 117.329 51.4171 117.068 52.2012 117.068C53.0429 117.068 53.7119 117.369 54.208 117.972C54.7042 118.574 54.9523 119.367 54.9523 120.351C54.9523 120.98 54.8149 121.549 54.5403 122.058C54.27 122.568 53.8846 122.964 53.3841 123.248C52.8879 123.531 52.3253 123.673 51.6962 123.673C50.6773 123.673 49.8534 123.319 49.2243 122.61C48.5997 121.901 48.2874 120.955 48.2874 119.773V119.082C48.2874 118.032 48.4845 117.106 48.8788 116.304C49.2775 115.498 49.8467 114.875 50.5865 114.437C51.3308 113.994 52.1924 113.77 53.1714 113.766H53.4904ZM51.6165 118.61C51.3064 118.61 51.0251 118.692 50.7726 118.856C50.5201 119.015 50.334 119.228 50.2144 119.493V120.078C50.2144 120.721 50.3407 121.223 50.5932 121.587C50.8457 121.945 51.2001 122.125 51.6564 122.125C52.0683 122.125 52.4006 121.963 52.6531 121.64C52.91 121.312 53.0385 120.889 53.0385 120.371C53.0385 119.843 52.91 119.418 52.6531 119.095C52.3962 118.771 52.0506 118.61 51.6165 118.61ZM60.5872 119.673C60.0866 120.165 59.5019 120.411 58.8329 120.411C57.9779 120.411 57.2935 120.118 56.7796 119.533C56.2658 118.944 56.0088 118.151 56.0088 117.154C56.0088 116.521 56.1461 115.941 56.4208 115.413C56.6999 114.882 57.0875 114.47 57.5837 114.178C58.0798 113.881 58.638 113.732 59.2582 113.732C59.8961 113.732 60.4632 113.892 60.9593 114.211C61.4555 114.53 61.8409 114.988 62.1155 115.586C62.3902 116.184 62.5297 116.869 62.5342 117.64V118.351C62.5342 119.963 62.1333 121.23 61.3314 122.151C60.5296 123.073 59.3933 123.565 57.9226 123.627L57.4508 123.633V122.032L57.8761 122.025C59.5462 121.95 60.4499 121.166 60.5872 119.673ZM59.3047 118.942C59.6148 118.942 59.8806 118.862 60.1021 118.703C60.328 118.543 60.4986 118.351 60.6138 118.125V117.334C60.6138 116.683 60.4897 116.178 60.2417 115.819C59.9936 115.46 59.6613 115.281 59.2449 115.281C58.8595 115.281 58.5428 115.458 58.2947 115.812C58.0466 116.162 57.9226 116.603 57.9226 117.135C57.9226 117.662 58.0422 118.096 58.2814 118.437C58.525 118.774 58.8662 118.942 59.3047 118.942ZM64.0891 122.597C64.0891 122.291 64.191 122.043 64.3948 121.852C64.603 121.662 64.8621 121.567 65.1722 121.567C65.4868 121.567 65.7459 121.662 65.9497 121.852C66.1579 122.043 66.262 122.291 66.262 122.597C66.262 122.898 66.1601 123.144 65.9563 123.334C65.7526 123.52 65.4912 123.613 65.1722 123.613C64.8577 123.613 64.5985 123.52 64.3948 123.334C64.191 123.144 64.0891 122.898 64.0891 122.597ZM68.1558 118.782L68.714 113.865H74.1363V115.467H70.2889L70.0496 117.547C70.5059 117.303 70.991 117.181 71.5049 117.181C72.4263 117.181 73.1484 117.467 73.6712 118.038C74.1939 118.61 74.4553 119.409 74.4553 120.437C74.4553 121.062 74.3224 121.622 74.0566 122.118C73.7952 122.61 73.4186 122.993 72.9269 123.268C72.4352 123.538 71.8549 123.673 71.1859 123.673C70.6012 123.673 70.0585 123.556 69.5579 123.321C69.0573 123.082 68.6608 122.747 68.3685 122.318C68.0805 121.888 67.9277 121.398 67.91 120.849H69.8104C69.8503 121.252 69.9898 121.567 70.2291 121.793C70.4727 122.014 70.7894 122.125 71.1793 122.125C71.6134 122.125 71.9479 121.97 72.1827 121.66C72.4175 121.345 72.5349 120.902 72.5349 120.331C72.5349 119.781 72.3997 119.361 72.1295 119.068C71.8593 118.776 71.4761 118.63 70.9799 118.63C70.5236 118.63 70.1537 118.749 69.8702 118.988L69.6842 119.161L68.1558 118.782ZM82.3163 123.54H75.6846V122.225L78.8144 118.889C79.2441 118.419 79.5608 118.009 79.7646 117.659C79.9728 117.31 80.0769 116.977 80.0769 116.663C80.0769 116.233 79.9684 115.896 79.7513 115.653C79.5342 115.405 79.2241 115.281 78.821 115.281C78.3869 115.281 78.0435 115.431 77.791 115.732C77.543 116.029 77.4189 116.421 77.4189 116.909H75.4919C75.4919 116.319 75.6314 115.781 75.9105 115.294C76.194 114.807 76.5927 114.426 77.1066 114.151C77.6205 113.872 78.203 113.732 78.8542 113.732C79.851 113.732 80.624 113.972 81.1733 114.45C81.7271 114.928 82.0039 115.604 82.0039 116.477C82.0039 116.955 81.8799 117.442 81.6318 117.939C81.3837 118.435 80.9585 119.013 80.356 119.673L78.1565 121.992H82.3163V123.54Z" fill="white"/>
<path d="M27.4386 95.5325H28.2617V96.6947H27.4386V98.2659H25.9971V96.6947H23.0193L22.9544 95.7869L25.9822 91.0034H27.4386V95.5325ZM24.391 95.5325H25.9971V92.9687L25.9023 93.1333L24.391 95.5325ZM33.9779 91.8115L31.1697 98.2659H29.6483L32.4616 92.1706H28.8503V91.0034H33.9779V91.8115ZM35.1202 94.6945L35.5391 91.0034H39.6093V92.2055H36.7213L36.5417 93.7668C36.8842 93.5839 37.2484 93.4924 37.6341 93.4924C38.3258 93.4924 38.8678 93.7069 39.2602 94.1359C39.6526 94.5648 39.8488 95.1651 39.8488 95.9365C39.8488 96.4054 39.749 96.8261 39.5495 97.1985C39.3533 97.5676 39.0706 97.8553 38.7015 98.0614C38.3324 98.2643 37.8968 98.3657 37.3947 98.3657C36.9557 98.3657 36.5484 98.2776 36.1726 98.1013C35.7969 97.9218 35.4992 97.6707 35.2798 97.3481C35.0636 97.0256 34.9489 96.6581 34.9356 96.2458H36.3622C36.3921 96.5484 36.4968 96.7845 36.6764 96.9541C36.8593 97.1204 37.0971 97.2035 37.3897 97.2035C37.7156 97.2035 37.9666 97.0871 38.1429 96.8543C38.3191 96.6182 38.4072 96.2857 38.4072 95.8567C38.4072 95.4444 38.3058 95.1285 38.103 94.909C37.9001 94.6895 37.6125 94.5798 37.2401 94.5798C36.8975 94.5798 36.6199 94.6696 36.4071 94.8492L36.2674 94.9788L35.1202 94.6945ZM44.6821 90.9286V92.1157H44.5425C43.8907 92.1257 43.3653 92.2953 42.9663 92.6245C42.5706 92.9537 42.3328 93.411 42.253 93.9962C42.6387 93.6038 43.1259 93.4076 43.7145 93.4076C44.3463 93.4076 44.8484 93.6337 45.2208 94.086C45.5933 94.5382 45.7795 95.1335 45.7795 95.8717C45.7795 96.3439 45.6764 96.7712 45.4702 97.1536C45.2674 97.536 44.9781 97.8336 44.6023 98.0465C44.2299 98.2593 43.8076 98.3657 43.3354 98.3657C42.5706 98.3657 41.952 98.0997 41.4798 97.5676C41.011 97.0356 40.7765 96.3256 40.7765 95.4377V94.919C40.7765 94.1309 40.9245 93.4359 41.2205 92.834C41.5198 92.2288 41.9471 91.7616 42.5024 91.4324C43.061 91.0998 43.7078 90.9319 44.4427 90.9286H44.6821ZM43.2755 94.5648C43.0428 94.5648 42.8316 94.6264 42.642 94.7494C42.4525 94.8691 42.3128 95.0287 42.2231 95.2282V95.6672C42.2231 96.1494 42.3178 96.5268 42.5074 96.7995C42.6969 97.0688 42.9629 97.2035 43.3055 97.2035C43.6147 97.2035 43.8641 97.0821 44.0536 96.8394C44.2465 96.5933 44.343 96.2757 44.343 95.8867C44.343 95.4909 44.2465 95.1717 44.0536 94.929C43.8608 94.6862 43.6014 94.5648 43.2755 94.5648Z" fill="white"/>
</svg>
