<svg width="66" height="66" viewBox="0 0 66 66" fill="none" xmlns="http://www.w3.org/2000/svg">
<g filter="url(#filter0_d)">
<path d="M16.052 43.0836C15.3379 43.0836 14.6513 43.2619 14.0422 43.5966C10.8337 39.4836 9.07262 34.3743 9.07262 29.14C9.07262 16.1744 19.6205 5.62652 32.5861 5.62652C34.1623 5.62652 35.7378 5.78336 37.2689 6.09277C37.8075 6.20175 38.3337 5.85303 38.4427 5.31361C38.5517 4.77419 38.2029 4.24878 37.6635 4.13941C36.0028 3.80393 34.2947 3.63385 32.5861 3.63385C25.7733 3.63385 19.3679 6.28698 14.5505 11.1044C9.73308 15.9218 7.07996 22.3272 7.07996 29.14C7.07996 34.8709 9.02592 40.4636 12.5687 44.9471C12.1126 45.6286 11.8674 46.4295 11.8674 47.2682C11.8674 48.386 12.3029 49.4368 13.0934 50.2269C13.8834 51.0173 14.9343 51.4528 16.052 51.4528C17.1698 51.4528 18.2206 51.0173 19.0111 50.2269C19.8015 49.4368 20.2366 48.3856 20.2366 47.2678C20.2366 46.1505 19.8015 45.0993 19.0111 44.3092C18.2206 43.5187 17.1698 43.0836 16.052 43.0836ZM17.6018 48.818C17.1881 49.2321 16.6374 49.4602 16.052 49.4602C15.4667 49.4602 14.9164 49.2321 14.5023 48.818C14.0882 48.4039 13.8601 47.8536 13.8601 47.2682C13.8601 46.6825 14.0882 46.1322 14.5023 45.7181C14.916 45.304 15.4667 45.0763 16.052 45.0763C16.6374 45.0763 17.1877 45.3044 17.6018 45.7181C18.0159 46.1322 18.244 46.6825 18.244 47.2682C18.244 47.8536 18.0159 48.4039 17.6018 48.818Z" fill="#37E710"/>
</g>
<g filter="url(#filter1_d)">
<path d="M52.6027 13.3318C53.6859 11.7069 53.5119 9.4854 52.0793 8.05278C51.2888 7.26272 50.238 6.82721 49.1202 6.82721C48.0025 6.82721 46.9516 7.26272 46.1612 8.05278C45.3707 8.84323 44.9356 9.89405 44.9356 11.0118C44.9356 12.1296 45.3707 13.1804 46.1612 13.9708C46.9516 14.7613 48.0025 15.1964 49.1202 15.1964C49.8344 15.1964 50.5209 15.0182 51.13 14.6835C54.3385 18.7968 56.0996 23.9058 56.0996 29.14C56.0996 42.1056 45.5517 52.6535 32.5861 52.6535C31.0255 52.6535 29.4648 52.4998 27.9481 52.1962C27.4087 52.0884 26.8837 52.4383 26.7755 52.9777C26.6677 53.5175 27.0176 54.0422 27.557 54.1504C29.2021 54.4792 30.8943 54.6462 32.5861 54.6462C39.399 54.6462 45.8043 51.9931 50.6217 47.1756C55.4392 42.3582 58.0923 35.9529 58.0923 29.14C58.0923 23.4088 56.1459 17.8157 52.6027 13.3318ZM47.5705 12.562C47.1564 12.1479 46.9283 11.5975 46.9283 11.0118C46.9283 10.4265 47.1564 9.87615 47.5705 9.46205C47.9842 9.04794 48.5349 8.81988 49.1202 8.81988C49.7056 8.81988 50.2563 9.04794 50.6704 9.46205C51.5247 10.3167 51.5247 11.7073 50.6704 12.562C50.2563 12.9757 49.7056 13.2037 49.1202 13.2037C48.5345 13.2037 47.9842 12.9757 47.5705 12.562Z" fill="#37E710"/>
</g>
<g filter="url(#filter2_d)">
<path d="M28.4746 46.2769C28.4746 46.8273 28.921 47.2733 29.4709 47.2733H35.7007C36.251 47.2733 36.6971 46.8273 36.6971 46.2769V44.3454C38.0071 43.9928 39.2595 43.4736 40.4364 42.7956L41.8001 44.1593C41.987 44.3462 42.2403 44.4512 42.505 44.4512C42.7689 44.4512 43.0226 44.3462 43.2094 44.159L47.6127 39.7525C48.0015 39.3633 48.0015 38.7324 47.6127 38.3436L46.2506 36.9815C46.9285 35.8045 47.4477 34.5521 47.8003 33.2421H49.7245C50.2748 33.2421 50.7208 32.7961 50.7208 32.2458V26.0159C50.7208 25.4656 50.2748 25.0196 49.7245 25.0196H47.7999C47.4473 23.71 46.9285 22.4576 46.2506 21.2806L47.6054 19.9259C47.7922 19.739 47.8972 19.4853 47.8972 19.221C47.8969 18.9568 47.7918 18.703 47.605 18.5162L43.1981 14.1129C42.8093 13.7241 42.1784 13.7241 41.7893 14.1133L40.4364 15.4665C39.2595 14.7885 38.0071 14.2693 36.6971 13.9167V12.003C36.6971 11.4527 36.251 11.0067 35.7007 11.0067H29.4709C28.921 11.0067 28.4746 11.4527 28.4746 12.003V13.9171C27.1649 14.2693 25.9125 14.7885 24.7356 15.4665L23.3824 14.1133C22.9936 13.7244 22.3627 13.7241 21.9735 14.1129L17.5671 18.5166C17.3798 18.7034 17.2748 18.9568 17.2748 19.221C17.2748 19.4853 17.3798 19.739 17.5667 19.9259L18.9214 21.2806C18.2435 22.4576 17.7243 23.7096 17.3717 25.0196H15.451C14.9007 25.0196 14.4547 25.4656 14.4547 26.0156L14.4512 32.2454C14.4508 32.5096 14.5559 32.7634 14.7427 32.9502C14.9295 33.137 15.1829 33.2421 15.4475 33.2421H17.3717C17.7243 34.5521 18.2435 35.8045 18.9214 36.9815L17.5593 38.3436C17.1705 38.7324 17.1701 39.3633 17.5593 39.7525L21.9626 44.159C22.1494 44.3458 22.4028 44.4512 22.667 44.4512H22.6674C22.9317 44.4512 23.1851 44.3462 23.3719 44.1593L24.7352 42.7956C25.9125 43.4736 27.1649 43.9928 28.4746 44.3454V46.2769ZM25.126 40.7002C24.7317 40.4453 24.2129 40.5005 23.8805 40.8325L22.6674 42.0456L19.6726 39.0485L20.8845 37.8361C21.2165 37.5041 21.2718 36.9853 21.0169 36.5911C20.1135 35.1931 19.4784 33.6609 19.1297 32.0364C19.0308 31.5775 18.6253 31.2494 18.1555 31.2494H16.4442L16.4466 27.0123H18.1555C18.6253 27.0123 19.0308 26.6846 19.1297 26.2253C19.4784 24.6012 20.1135 23.069 21.0169 21.671C21.2718 21.2767 21.2165 20.7579 20.8845 20.426L19.6804 19.2214L22.6775 16.2266L23.8805 17.43C24.2129 17.7619 24.7313 17.8168 25.126 17.5623C26.5235 16.659 28.0558 16.0238 29.6803 15.6751C30.1392 15.5762 30.4672 15.1703 30.4672 14.7009V12.9994H34.7044V14.7005C34.7044 15.1703 35.0321 15.5762 35.4913 15.6747C37.1154 16.0238 38.6481 16.6586 40.0457 17.5619C40.4399 17.8168 40.9587 17.7619 41.2907 17.4296L42.4941 16.2266L45.4913 19.2214L44.2871 20.4256C43.9547 20.7579 43.8998 21.2767 44.1548 21.671C45.0581 23.069 45.6929 24.6012 46.042 26.2253C46.1404 26.6846 46.5464 27.0123 47.0161 27.0123H48.7282V31.2494H47.0161C46.5464 31.2494 46.1408 31.5775 46.042 32.0364C45.6932 33.6605 45.0581 35.1931 44.1548 36.5907C43.8998 36.9853 43.9551 37.5041 44.2871 37.8361L45.499 39.0481L42.5042 42.0452L41.2911 40.8325C40.9587 40.5002 40.4399 40.4453 40.0457 40.7002C38.6477 41.6035 37.1154 42.2383 35.4913 42.5874C35.0321 42.6862 34.7044 43.0918 34.7044 43.5615V45.2806H30.4672V43.5615C30.4672 43.0922 30.1392 42.6862 29.6803 42.5874C28.0562 42.2387 26.5239 41.6035 25.126 40.7002Z" fill="#37E710"/>
</g>
<g filter="url(#filter3_d)">
<path d="M40.8187 29.1399C40.8187 24.6004 37.1257 20.9073 32.5861 20.9073C28.0466 20.9073 24.3535 24.6004 24.3535 29.1399C24.3535 33.6795 28.0466 37.3726 32.5861 37.3726C37.1257 37.3726 40.8187 33.6795 40.8187 29.1399ZM26.3462 29.1399C26.3462 25.6991 29.1453 22.9 32.5861 22.9C36.027 22.9 38.826 25.6995 38.826 29.1399C38.826 32.5804 36.027 35.3799 32.5861 35.3799C29.1453 35.3799 26.3462 32.5808 26.3462 29.1399Z" fill="#37E710"/>
</g>
<defs>
<filter id="filter0_d" x="0.0799561" y="0.63385" width="45.3827" height="61.819" filterUnits="userSpaceOnUse" color-interpolation-filters="sRGB">
<feFlood flood-opacity="0" result="BackgroundImageFix"/>
<feColorMatrix in="SourceAlpha" type="matrix" values="0 0 0 0 0 0 0 0 0 0 0 0 0 0 0 0 0 0 127 0" result="hardAlpha"/>
<feOffset dy="4"/>
<feGaussianBlur stdDeviation="3.5"/>
<feComposite in2="hardAlpha" operator="out"/>
<feColorMatrix type="matrix" values="0 0 0 0 0 0 0 0 0 0 0 0 0 0 0 0 0 0 0.15 0"/>
<feBlend mode="normal" in2="BackgroundImageFix" result="effect1_dropShadow"/>
<feBlend mode="normal" in="SourceGraphic" in2="effect1_dropShadow" result="shape"/>
</filter>
<filter id="filter1_d" x="19.756" y="3.82721" width="45.3363" height="61.819" filterUnits="userSpaceOnUse" color-interpolation-filters="sRGB">
<feFlood flood-opacity="0" result="BackgroundImageFix"/>
<feColorMatrix in="SourceAlpha" type="matrix" values="0 0 0 0 0 0 0 0 0 0 0 0 0 0 0 0 0 0 127 0" result="hardAlpha"/>
<feOffset dy="4"/>
<feGaussianBlur stdDeviation="3.5"/>
<feComposite in2="hardAlpha" operator="out"/>
<feColorMatrix type="matrix" values="0 0 0 0 0 0 0 0 0 0 0 0 0 0 0 0 0 0 0.15 0"/>
<feBlend mode="normal" in2="BackgroundImageFix" result="effect1_dropShadow"/>
<feBlend mode="normal" in="SourceGraphic" in2="effect1_dropShadow" result="shape"/>
</filter>
<filter id="filter2_d" x="7.45117" y="8.00671" width="50.2697" height="50.2666" filterUnits="userSpaceOnUse" color-interpolation-filters="sRGB">
<feFlood flood-opacity="0" result="BackgroundImageFix"/>
<feColorMatrix in="SourceAlpha" type="matrix" values="0 0 0 0 0 0 0 0 0 0 0 0 0 0 0 0 0 0 127 0" result="hardAlpha"/>
<feOffset dy="4"/>
<feGaussianBlur stdDeviation="3.5"/>
<feComposite in2="hardAlpha" operator="out"/>
<feColorMatrix type="matrix" values="0 0 0 0 0 0 0 0 0 0 0 0 0 0 0 0 0 0 0.15 0"/>
<feBlend mode="normal" in2="BackgroundImageFix" result="effect1_dropShadow"/>
<feBlend mode="normal" in="SourceGraphic" in2="effect1_dropShadow" result="shape"/>
</filter>
<filter id="filter3_d" x="17.3535" y="17.9073" width="30.4652" height="30.4652" filterUnits="userSpaceOnUse" color-interpolation-filters="sRGB">
<feFlood flood-opacity="0" result="BackgroundImageFix"/>
<feColorMatrix in="SourceAlpha" type="matrix" values="0 0 0 0 0 0 0 0 0 0 0 0 0 0 0 0 0 0 127 0" result="hardAlpha"/>
<feOffset dy="4"/>
<feGaussianBlur stdDeviation="3.5"/>
<feComposite in2="hardAlpha" operator="out"/>
<feColorMatrix type="matrix" values="0 0 0 0 0 0 0 0 0 0 0 0 0 0 0 0 0 0 0.15 0"/>
<feBlend mode="normal" in2="BackgroundImageFix" result="effect1_dropShadow"/>
<feBlend mode="normal" in="SourceGraphic" in2="effect1_dropShadow" result="shape"/>
</filter>
</defs>
</svg>
