<svg width="61" height="48" viewBox="0 0 61 48" fill="none" xmlns="http://www.w3.org/2000/svg">
<path d="M35.4966 41.5456C35.9768 41.5456 36.3666 41.1558 36.3666 40.6755C36.3666 40.1952 35.9768 39.8054 35.4966 39.8054C35.0163 39.8054 34.6265 40.1952 34.6265 40.6755C34.6265 41.1558 35.0163 41.5456 35.4966 41.5456Z" fill="#37E710"/>
<path d="M40.6919 12.2187H32.6341V8.99664C32.6341 4.56346 29.0463 0.941528 24.5764 0.941528C23.653 0.941528 22.7513 1.09637 21.8904 1.40112C21.0295 1.09637 20.1279 0.941528 19.2045 0.941528C14.7615 0.941528 11.1468 4.55505 11.1468 8.99664V12.2187C10.071 12.2187 2.34652 12.2187 1.37001 12.2187H1.29838C0.803905 12.2187 0.403076 12.6195 0.403076 13.1137V42.2911C0.403076 44.7584 2.4108 46.7657 4.88006 46.7661C4.88024 46.7661 4.88033 46.7661 4.88042 46.7661H37.1107C39.579 46.7661 41.5872 44.7586 41.5872 42.2911V13.1137C41.5872 12.6195 41.1864 12.2187 40.6919 12.2187ZM30.8435 8.99664V12.2187H27.2623V8.99664C27.2623 6.51405 26.1426 4.23983 24.285 2.73844C24.3817 2.73406 24.4789 2.73155 24.5764 2.73155C28.0333 2.73155 30.8435 5.52811 30.8435 8.99664ZM18.3092 12.2187V8.99664C18.3092 6.5537 19.7034 4.37059 21.8905 3.3356C24.0774 4.3705 25.4717 6.55361 25.4717 8.99664V12.2187H18.3092ZM12.9374 8.99664C12.9374 5.54207 15.7488 2.73155 19.2045 2.73155C19.302 2.73155 19.3992 2.73406 19.496 2.73844C17.6383 4.23983 16.5186 6.51405 16.5186 8.99664V12.2187H12.9374V8.99664ZM7.56554 14.0087C7.56554 15.9827 6.36063 17.5888 4.87961 17.5888C3.3986 17.5888 2.19369 15.9827 2.19369 14.0087H7.56554ZM2.19369 42.2911V18.3018C2.94244 18.9776 3.87266 19.3788 4.87961 19.3788C5.88657 19.3788 6.81679 18.9776 7.56554 18.3018V42.2911C7.56554 43.771 6.36081 44.9755 4.87961 44.9761C3.3986 44.9761 2.19369 43.7716 2.19369 42.2911ZM39.7966 42.2911C39.7966 43.7716 38.5917 44.9761 37.1107 44.9761H8.45798C9.02149 44.2276 9.35615 43.2977 9.35615 42.2911V14.0087H16.5186V17.5888H15.6233C15.1288 17.5888 14.728 17.9895 14.728 18.4838C14.728 18.978 15.1288 19.3788 15.6233 19.3788H19.2045C19.699 19.3788 20.0998 18.978 20.0998 18.4838C20.0998 17.9895 19.699 17.5888 19.2045 17.5888H18.3092V14.0087H30.8435V17.5888H29.9482C29.4537 17.5888 29.0529 17.9895 29.0529 18.4838C29.0529 18.978 29.4537 19.3788 29.9482 19.3788H33.5295C34.0239 19.3788 34.4248 18.978 34.4248 18.4838C34.4248 17.9895 34.0239 17.5888 33.5295 17.5888H32.6341V14.0087H39.7966V42.2911Z" fill="#37E710"/>
<path d="M31.9898 39.8054H14.0608C13.5656 39.8054 13.1643 40.195 13.1643 40.6755C13.1643 41.156 13.5656 41.5456 14.0608 41.5456H31.9898C32.485 41.5456 32.8863 41.156 32.8863 40.6755C32.8863 40.195 32.485 39.8054 31.9898 39.8054Z" fill="#37E710"/>
<path d="M59.3528 39.9253C59.2912 39.7992 59.2912 39.6546 59.3528 39.5285L59.9241 38.3597C60.2422 37.709 59.9902 36.9333 59.3504 36.5939L58.2012 35.9841C58.0772 35.9184 57.9922 35.8013 57.968 35.6631L57.7432 34.3817C57.6181 33.6683 56.9581 33.1889 56.2411 33.2904L54.953 33.4726C54.814 33.4922 54.6765 33.4475 54.5756 33.3499L53.6407 32.4454C53.1201 31.9418 52.3045 31.9418 51.7839 32.4454L50.8489 33.35C50.748 33.4476 50.6105 33.4922 50.4715 33.4726L49.1835 33.2904C48.4662 33.1889 47.8065 33.6684 47.6813 34.3818L47.4566 35.6632C47.4323 35.8014 47.3473 35.9184 47.2234 35.9842L46.0742 36.5939C45.4344 36.9334 45.1823 37.7091 45.5004 38.3598L46.0717 39.5285C46.1333 39.6546 46.1333 39.7993 46.0717 39.9253L45.5004 41.0941C45.1823 41.7448 45.4343 42.5205 46.0742 42.8599L47.2233 43.4697C47.3473 43.5354 47.4323 43.6525 47.4566 43.7907L47.6813 45.072C47.7952 45.7215 48.3521 46.177 48.9922 46.1769C49.0552 46.1769 49.1192 46.1725 49.1835 46.1634L50.4716 45.9812C50.6105 45.9615 50.748 46.0063 50.8489 46.1038L51.7839 47.0083C52.0443 47.2602 52.3782 47.3861 52.7123 47.3861C53.0462 47.386 53.3804 47.2601 53.6406 47.0083L54.5756 46.1038C54.6765 46.0063 54.814 45.9617 54.953 45.9812L56.2411 46.1634C56.9585 46.2649 57.6181 45.7855 57.7432 45.072L57.968 43.7907C57.9923 43.6525 58.0773 43.5355 58.2012 43.4697L59.3504 42.8599C59.9902 42.5205 60.2422 41.7448 59.9241 41.094L59.3528 39.9253ZM58.9363 42.0795L57.7871 42.6892C57.4207 42.8836 57.1694 43.2294 57.0978 43.638L56.873 44.9193C56.8307 45.1607 56.6075 45.3229 56.3648 45.2886L55.0767 45.1064C54.666 45.0482 54.2595 45.1804 53.9614 45.4688L53.0264 46.3733C52.8503 46.5436 52.5743 46.5436 52.3982 46.3733L51.4632 45.4688C51.2112 45.225 50.8818 45.0929 50.5379 45.0929C50.4749 45.0929 50.4114 45.0974 50.3478 45.1064L49.0597 45.2886C48.8172 45.3229 48.5939 45.1607 48.5515 44.9193L48.3267 43.6379C48.255 43.2294 48.0038 42.8836 47.6374 42.6892L46.4882 42.0794C46.2717 41.9646 46.1864 41.7022 46.2941 41.482L46.8654 40.3132C47.0475 39.9406 47.0475 39.5132 46.8654 39.1405L46.2941 37.9717C46.1864 37.7516 46.2717 37.4892 46.4882 37.3743L47.6374 36.7646C48.0037 36.5701 48.255 36.2243 48.3267 35.8158L48.5514 34.5344C48.5938 34.293 48.8169 34.1309 49.0597 34.1652L50.3477 34.3474C50.7584 34.4055 51.165 34.2734 51.4631 33.985L52.3981 33.0805C52.5742 32.9101 52.8502 32.9101 53.0263 33.0805L53.9613 33.985C54.2594 34.2734 54.666 34.4055 55.0767 34.3474L56.3648 34.1652C56.6073 34.1309 56.8306 34.293 56.873 34.5344L57.0977 35.8158C57.1694 36.2244 57.4207 36.5702 57.7871 36.7646L58.9362 37.3743C59.1527 37.4892 59.238 37.7516 59.1304 37.9717L58.5591 39.1405C58.3769 39.5131 58.3769 39.9406 58.5591 40.3132L59.1304 41.4819C59.238 41.7022 59.1528 41.9646 58.9363 42.0795Z" fill="#37E710"/>
<path d="M55.94 36.4991C55.7675 36.3266 55.4877 36.3266 55.3152 36.4991L49.4845 42.3299C49.312 42.5024 49.312 42.7821 49.4845 42.9546C49.5707 43.0409 49.6838 43.084 49.7968 43.084C49.9099 43.084 50.023 43.0409 50.1092 42.9546L55.9399 37.1239C56.1125 36.9513 56.1125 36.6717 55.94 36.4991Z" fill="#37E710"/>
<path d="M50.9453 35.7512C50.0522 35.7512 49.3256 36.4778 49.3256 37.3709C49.3256 38.264 50.0522 38.9907 50.9453 38.9907C51.8384 38.9907 52.5651 38.264 52.5651 37.3709C52.5651 36.4778 51.8384 35.7512 50.9453 35.7512ZM50.9453 38.1071C50.5393 38.1071 50.2091 37.7769 50.2091 37.3709C50.2091 36.9649 50.5393 36.6346 50.9453 36.6346C51.3513 36.6346 51.6816 36.9649 51.6816 37.3709C51.6815 37.7769 51.3513 38.1071 50.9453 38.1071Z" fill="#37E710"/>
<path d="M54.4792 40.4631C53.5861 40.4631 52.8595 41.1898 52.8595 42.0829C52.8595 42.976 53.5861 43.7026 54.4792 43.7026C55.3724 43.7026 56.099 42.976 56.099 42.0829C56.099 41.1898 55.3724 40.4631 54.4792 40.4631ZM54.4792 42.8191C54.0733 42.8191 53.743 42.4888 53.743 42.0829C53.743 41.6769 54.0733 41.3467 54.4792 41.3467C54.8852 41.3467 55.2155 41.6769 55.2155 42.0829C55.2155 42.4888 54.8852 42.8191 54.4792 42.8191Z" fill="#37E710"/>
</svg>
